<?xml version="1.0" standalone="no"?>
<!DOCTYPE svg PUBLIC "-//W3C//DTD SVG 1.1//EN" "http://www.w3.org/Graphics/SVG/1.1/DTD/svg11.dtd" >
<!--
2013-9-30: Created.
-->
<svg>
<metadata>
Created by iconfont
</metadata>
<defs>

<font id="iconfont" horiz-adv-x="1024" >
  <font-face
    font-family="iconfont"
    font-weight="500"
    font-stretch="normal"
    units-per-em="1024"
    ascent="896"
    descent="-128"
  />
    <missing-glyph />
    
    <glyph glyph-name="jinbizhuanchu" unicode="&#983278;" d="M52.224 320.512q-24.576 0-41.472 16.384t-16.896 40.96l0 76.8q0 24.576 16.896 41.472t41.472 16.896l741.376 0q-18.432-11.264-29.696-26.624t-11.264-30.72l0-40.96 1.024-31.744q-6.144-1.024-17.408-1.024l-69.632 0q-82.944 0-91.136-61.44l-523.264 0zM179.2 578.56q-23.552 0-40.96 16.896t-17.408 41.472l0 70.656q0 23.552 17.408 41.472t40.96 17.92l780.288 0q23.552 0 40.448-17.92t16.896-41.472l0-70.656q0-24.576-16.896-41.472t-40.448-16.896l-780.288 0zM711.68 125.952q18.432 0 28.16 2.048t14.336-1.024 5.632-14.336 1.024-37.888l0-7.168q0-4.096 1.024-7.168l-709.632 0q-24.576 0-41.472 17.408t-16.896 40.96l0 76.8q0 23.552 16.896 40.96t41.472 17.408l521.216 0 0-23.552q0-45.056 25.088-74.24t58.88-29.184l20.48 0q4.096 0 6.144-0.512t7.168-0.512l20.48 0zM1079.296 291.84q7.168-6.144 10.752-14.336t4.096-17.408-2.048-16.896-8.704-11.776q-16.384-14.336-44.544-31.744t-59.392-36.352-60.928-37.376-48.128-32.768q-23.552-20.48-34.816-21.504t-11.264 28.672l0 51.2q0 20.48-8.704 28.672t-25.088 8.192l-122.88 0q-14.336 0-25.088 7.68t-10.752 26.112l0 51.2q0 31.744 9.728 38.4t35.328 6.656l19.456 0q7.168 0 17.408-0.512t25.6-0.512l44.032 0q23.552 0 32.256 15.872t8.704 35.328l0 48.128q0 20.48 8.192 26.112t25.6-8.704q18.432-13.312 48.128-31.744t62.464-37.888 62.464-38.4 48.128-34.304z"  horiz-adv-x="1101" />

    
    <glyph glyph-name="jinbitixian" unicode="&#983279;" d="M55.296 322.56q-23.552 0-40.448 17.408t-16.896 40.96l0 77.824q0 23.552 16.896 40.448t40.448 16.896l751.616 0q-15.36-4.096-29.696-10.752t-25.6-20.992q-32.768-36.864-65.536-79.36t-62.464-82.432l-568.32 0zM183.296 581.632q-23.552 0-40.448 17.408t-16.896 40.96l0 71.68q0 23.552 16.896 40.448t40.448 16.896l779.264 0q23.552 0 40.96-16.896t17.408-40.448l0-71.68q0-23.552-17.408-40.96t-40.96-17.408l-779.264 0zM700.416 132.096l0-8.192q0-6.144 0.512-19.968t0.512-40.448l-646.144 0q-23.552 0-40.448 16.896t-16.896 41.472l0 76.8q0 23.552 16.896 40.448t40.448 16.896l517.12 0q-3.072-2.048-5.632-5.632t-4.608-5.632q-10.24-14.336-12.288-33.792t4.096-37.376 19.968-30.208 34.304-12.288l48.128 0zM1005.568 246.784l15.36-25.6q6.144-10.24 6.144-16.384t-7.68-8.704-25.088-2.56l-55.296 0q-22.528 0-33.792-11.264t-11.264-29.696l0-99.328q0-17.408-15.36-34.816t-36.864-17.408l-39.936 0q-15.36 0-27.136 11.776t-11.776 41.472q0 13.312 0.512 16.896t0.512 9.216 0.512 18.944 0.512 46.08q0 25.6-8.704 36.864t-31.232 11.264l-55.296 0q-23.552 0-29.696 9.728t10.24 30.208q15.36 20.48 34.304 47.616t38.912 56.32 38.912 56.832 36.352 49.152q7.168 8.192 18.432 12.8t23.552 5.12 22.528-2.56 15.36-10.24q12.288-21.504 28.16-47.616t33.28-52.736 34.304-52.736 31.232-48.64z"  horiz-adv-x="1030" />

    
    <glyph glyph-name="dianhua" unicode="&#983535;" d="M704.512 508.928q21.504-25.6 46.08-52.224 20.48-23.552 45.568-52.224t51.712-58.368q33.792-38.912 55.808-69.632t34.816-56.32 17.408-47.104 4.608-43.008l0-66.56q0-30.72-10.24-55.296t-28.16-42.496-40.96-27.648-48.64-9.728l-631.808 0q-27.648 0-52.736 9.216t-44.032 26.112-30.208 40.448-11.264 53.248l0 78.848q0 24.576 4.608 47.104t16.896 47.104 33.792 52.736 54.272 61.952q26.624 28.672 54.784 57.856t50.688 52.736q26.624 27.648 51.2 53.248l375.808 0zM512 120.832q26.624 0 50.176 10.24t40.96 27.648 27.648 41.472 10.24 50.688-10.24 50.176-27.648 40.96-40.96 27.648-50.176 10.24-50.688-10.24-41.472-27.648-27.648-40.96-10.24-50.176 10.24-50.688 27.648-41.472 41.472-27.648 50.688-10.24zM1025.024 632.832l0-64.512q0-26.624-18.944-45.056t-45.568-18.432l-128 0q-26.624 0-45.056 18.432t-18.432 45.056l0 64.512-513.024 0 0-64.512q0-26.624-18.432-45.056t-45.056-18.432l-128 0q-26.624 0-45.568 18.432t-18.944 45.056l0 64.512 0 2.048q0 12.288 6.144 20.992t15.36 15.872 20.48 12.8 22.528 12.8q11.264 6.144 50.688 27.136t99.328 43.52 136.192 39.936 162.304 17.408q98.304 0 175.616-17.408t134.144-39.936 91.136-43.52 46.592-27.136q12.288-7.168 23.552-12.8t20.48-12.8 14.848-15.872 5.632-20.992l0-2.048z"  horiz-adv-x="1026" />

    
    <glyph glyph-name="jiangjin" unicode="&#58882;" d="M645.239554 299.595961c-13.15716 12.038283-28.075514 21.237935-44.755064 27.578236-16.658829 6.361021-39.077801 13.405799-67.215475 21.113616l0 141.558609c28.572793-9.241092 46.619858-28.116954 54.099755-56.482548 6.58894-24.076567 20.968576-36.05269 43.263228-36.05269 11.768924 0 21.818094 4.123267 30.106068 12.431962 8.225815 8.246535 12.390522 18.067785 12.390522 29.42231 0 10.214929-2.776472 21.445135-8.308695 33.711337-5.573663 12.245483-13.447239 24.159446-23.662168 35.721171-12.929241 15.187714-28.054795 26.521519-45.418102 34.042856-17.342587 7.479897-38.186844 12.494122-62.47061 14.959794L533.269015 608.57166c0 18.585783-7.293418 27.930475-21.776654 27.930475-14.317476 0-21.445135-9.551891-21.445135-28.614233l0-50.308007c-46.992817-4.081828-82.879747-18.606503-107.743672-43.574027-24.843204-24.926084-37.233727-56.917667-37.233727-95.974748 0-29.961029 6.319581-54.472714 19.041622-73.514336 12.701321-19.062342 29.297991-33.752777 49.707129-44.071306 20.409138-10.318529 45.8325-19.68394 76.228648-28.075514l0-158.258878c-15.208434 4.289027-27.412476 10.567168-36.612128 18.689383-9.158212 8.205095-16.037231 17.197548-20.574897 27.080957-4.537666 9.86269-9.88341 24.097287-15.995791 42.72451-2.735032 8.578054-7.624937 15.332753-14.648995 20.077619-7.024059 4.765585-15.664272 7.169098-25.858481 7.169098-12.701321 0-23.309929-4.371907-31.805103-13.11572-8.495174-8.743813-12.763481-18.565063-12.763481-29.42231 0-14.773315 3.14943-29.795269 9.510451-45.128023 6.361021-15.270593 16.161551-30.043908 29.44303-44.237065 13.28148-14.193157 29.836709-26.044961 49.665689-35.596852 19.870419-9.510451 43.076749-15.747152 69.639708-18.689383l0-63.423727c0-10.442848 1.636875-18.171385 4.931345-23.144169 3.27375-4.993505 9.033892-7.479897 17.197548-7.479897 8.847413 0 14.545396 3.025111 17.176828 9.178932 2.589992 6.112381 3.895348 15.871472 3.895348 29.256551L533.248295 44.326339c32.447421 2.735032 60.440056 11.250926 84.060784 25.506242 23.620728 14.317476 41.460594 32.77894 53.623197 55.322231 12.121163 22.564011 18.212825 46.806337 18.212825 72.664819 0 20.637057-3.812468 39.657959-11.375245 57.021266C670.124198 272.204205 659.287671 287.143279 645.239554 299.595961M490.047227 360.885534c-20.450578 7.500617-35.638291 15.809312-45.666741 25.008964-9.94557 9.199652-14.939074 22.750491-14.939074 40.673236 0 18.813703 5.345744 32.90326 15.995791 42.185791 10.691487 9.303252 25.547682 16.783149 44.610024 22.439692L490.047227 360.885534zM586.374213 138.311973c-12.494122-13.882358-30.209668-23.04057-53.105198-27.598956l0 149.059226c23.620728-7.479897 41.481314-16.638109 53.623197-27.391757 12.100443-10.795087 18.212825-26.044961 18.212825-45.770341C605.084316 168.252281 598.806176 152.070011 586.374213 138.311973M512.01036 812C229.65978 812 0 582.3195 0 300.03108c0-282.32986 229.65978-512.01036 512.01036-512.01036 282.30914 0 511.98964 229.6805 511.98964 512.01036C1024 582.3195 794.3195 812 512.01036 812M512.01036-140.827017c-243.086299 0-440.858097 197.730358-440.858097 440.858097 0 243.044859 197.771797 440.816657 440.858097 440.816657 243.065579 0 440.816657-197.771797 440.816657-440.816657C952.827017 56.903341 755.075939-140.827017 512.01036-140.827017"  horiz-adv-x="1025" />

    
    <glyph glyph-name="shouye2" unicode="&#58986;" d="M583.157131-56.655979c0 70.335928 0 140.779304 0 212.042347-47.509037 0-94.019327 0-141.564179 0 0-70.513984 0-140.921543 0-212.611306-4.422729-0.213871-7.953136-0.536212-11.484565-0.536212-66.840314 0-133.716444-0.034792-200.557782 0-22.970154 0-38.413891 13.875009-38.520315 36.84414-0.463558 87.242993-0.321318 174.555571 0.107447 261.798565 0 4.600785 3.709485 10.485819 7.454786 13.624299 60.491723 50.326199 121.30374 100.332103 182.010357 150.373823 40.411385 33.31271 80.785931 66.62542 121.197316 99.904361 3.139503 2.568499 6.349615 5.064342 10.307763 8.239662 24.111141-19.831674 48.115857-39.554878 72.083735-59.313897C663.265634 388.542592 742.23315 323.235191 821.520961 258.320739c8.524141-6.954389 12.163017-14.017248 12.091386-25.252127-0.499373-82.820264-0.356111-165.674297-0.178055-248.457722 0.035816-15.050788-3.709485-28.141944-17.013489-36.45119-4.814656-3.032056-10.914584-5.636371-16.442484-5.671163-70.942749-0.356111-141.884474-0.178055-212.791407-0.143263C586.152349-57.654726 585.08197-57.191168 583.157131-56.655979zM689.69354 530.390227c0 34.989909-0.034792 67.303872 0 99.583043 0.035816 20.615527 4.957919 25.537629 25.537629 25.573445 31.957853 0 63.915705 0.035816 95.872534-0.035816 16.4783-0.035816 22.185278-5.849218 22.221094-23.290449 0.071631-69.087495 0.249687-138.210805-0.212848-207.2983-0.071631-10.664897 2.924609-17.512862 11.305487-24.290219 35.025725-28.176736 69.371974-57.139372 103.898325-85.921905 16.941857-14.123672 17.370623-21.007453 3.103688-37.807071-8.631588-10.201339-17.084097-20.580734-25.78834-30.745235-10.69969-12.589736-19.545148-13.374612-32.350802-2.674922C770.694365 345.777603 648.106376 448.143015 525.481548 550.472612c-4.244674 3.53143-8.595772 6.990205-13.553691 11.056823-27.570939-22.970154-54.926984-45.690622-82.213443-68.480674-99.511411-83.034135-199.022823-166.103062-298.535257-249.13515-13.482059-11.270694-21.86396-10.593266-33.206286 2.674922-9.380648 11.021008-18.72548 22.113647-27.962865 33.241079-10.771321 12.982686-10.342556 21.364587 2.674922 32.313963 55.533804 46.474474 111.209848 92.770893 166.851099 139.13792 74.151837 61.811788 148.376329 123.55092 222.49235 185.469132 33.634028 28.070312 66.376757 28.070312 100.083439-0.213871 39.84038-33.420157 79.787184-66.698075 119.699196-100.010785C683.702082 534.957243 685.699576 533.494938 689.69354 530.390227z"  horiz-adv-x="1024" />

    
    <glyph glyph-name="5dianpuzu" unicode="&#58926;" d="M729.37635 253.2c12 12.9 11.3 33.2-1.7 45.2L358.87635 641.3 71.97635 359.2l-2 0 0-2L9.57635 297.8C-3.02365 285.4-3.22365 265.2 9.17635 252.6c12.4-12.6 32.7-12.8 45.3-0.4L69.97635 267.5l0-395.2 575 0L644.97635 288l39.2-36.4c6.2-5.7 14-8.6 21.8-8.6C714.57635 243 723.07635 246.4 729.37635 253.2zM454.37635-63.7 264.57635-63.7 264.57635 171.1c0 11.6 9.4 21.1 21 21.1l147.8 0c11.6 0 21-9.5 21-21.1L454.37635-63.7zM580.97635-63.7l-62.6 0L518.37635 171.1c0 46.9-38.1 85.1-85 85.1L285.57635 256.2c-46.9 0-85-38.2-85-85.1l0-234.8L133.97635-63.7 133.97635 330.4l226.1 222.3L580.97635 347.5 580.97635-63.7zM1031.67635 490.2 662.77635 833 462.37635 636c-12.6-12.4-12.8-32.7-0.4-45.3 12.4-12.6 32.7-12.8 45.3-0.4l156.8 154.2L900.97635 524.3l0-396.2L712.97635 128.1l0-64 252 0L964.97635 464.8l23.1-21.5c6.2-5.7 14-8.6 21.8-8.6 8.6 0 17.1 3.4 23.4 10.2C1045.37635 457.9 1044.67635 478.2 1031.67635 490.2z"  horiz-adv-x="1042" />

    
    <glyph glyph-name="xinghao" unicode="&#58913;" d="M768.711553 416.037174 589.435459 416.037174l126.75734 126.751695c12.522205 12.578649 12.522205 32.775891 0 45.409574-12.517972 12.523616-32.82528 12.523616-45.375707 0l-126.751695-126.75734 0 179.271861c0 17.716507-14.270572 32.097146-32.068924 32.097146-17.681229 0-32.097146-14.380639-32.097146-32.097146l0-179.228116-126.717829 126.768629c-12.550427 12.523616-32.857735 12.523616-45.381352 0-12.523616-12.578649-12.523616-32.885958 0-45.464607l126.71924-126.751695L255.260225 416.037174c-17.717918 0-32.071746-14.325606-32.071746-32.036468 0-17.770129 14.353828-32.097146 32.071746-32.097146l179.278916 0-126.738995-126.751695c-12.523616-12.523616-12.523616-32.830924 0-45.348896 6.261103-6.320369 14.414506-9.420582 22.675154-9.420582 8.154814 0 16.445095 3.104446 22.706198 9.420582l126.717829 126.707951 0-179.28315c0-17.709452 14.360884-32.036468 32.097146-32.036468 17.686874 0 32.068924 14.327017 32.068924 32.036468l0 179.239405 126.751695-126.779918c6.262514-6.200425 14.552795-9.359904 22.704787-9.359904 8.262059 0 16.38724 3.159479 22.67092 9.359904 12.522205 12.578649 12.522205 32.885958 0 45.409574l-126.751695 126.806729 179.27045 0c17.737674 0 32.097146 14.327017 32.097146 32.097146C800.808699 401.710157 786.449227 416.037174 768.711553 416.037174L768.711553 416.037174zM768.711553 416.037174"  horiz-adv-x="1024" />

    
    <glyph glyph-name="fenxiangzidongzhuanchu" unicode="&#58898;" d="M1001.248-128l0 68.256-887.616 0c-24.992 0-45.344 20.512-45.344 45.728l0 591.424 1206.048 0 0-157.248 68.256 0 0 361.888c0 62.976-51.008 113.952-113.888 113.952l-1114.784 0c-62.912 0-113.888-51.04-113.888-113.984l0-796c0-63.2 50.88-114.016 113.632-114.016l728.352 0zM68.256 759.456l0 22.56c0 25.216 20.448 45.728 45.632 45.728l1114.784 0c25.152 0 45.632-20.48 45.632-45.664l0-136.384-1206.048 0 0 113.792zM1274.304 347.104l0-91.008-295.904 0c-25.184 0-45.44-20.352-45.44-45.472l0-91.104c0-25.28 20.352-45.472 45.44-45.472l295.904 0 0-91.008 182.048 182.048-182.048 182.048zM186.176 202.144c-20.48 0-37.088-16.608-37.088-37.088s16.608-37.12 37.088-37.12l353.632 0c20.48 0 37.088 16.608 37.088 37.12s-16.608 37.088-37.088 37.088l-353.632 0z"  horiz-adv-x="1472" />

    
    <glyph glyph-name="fenxiangzidongzhuanru" unicode="&#58899;" d="M113.632-59.744c-24.992 0-45.344 20.512-45.344 45.728l0 591.424 1206.048 0 0-157.248 68.256 0 0 361.888c0 62.976-51.008 113.952-113.888 113.952l-1114.784 0c-62.912 0-113.888-51.04-113.888-113.984l0-796c0-63.2 50.88-114.016 113.632-114.016l887.616 0 0 68.256-887.616 0zM68.256 759.456l0 22.56c0 25.216 20.448 45.728 45.632 45.728l1114.784 0c25.152 0 45.632-20.48 45.632-45.664l0-136.384-1206.048 0 0 113.792zM1433.664 256.096l-295.904 0 0 91.008-182.048-182.048 182.048-182.048 0 91.008 295.904 0c25.088 0 45.44 20.192 45.44 45.472l0 91.104c0 25.088-20.288 45.472-45.44 45.472zM186.176 202.144c-20.48 0-37.088-16.608-37.088-37.088s16.608-37.12 37.088-37.12l353.632 0c20.48 0 37.088 16.608 37.088 37.12s-16.608 37.088-37.088 37.088l-353.632 0z"  horiz-adv-x="1480" />

    
    <glyph glyph-name="email" unicode="&#58888;" d="M1247.912-127.854h-989.743c-116.463 0-211.291 93.463-211.291 208.367v607.12c0 114.904 94.827 208.367 211.291 208.367h989.743c116.512 0 211.291-93.463 211.291-208.367v-607.12c0-114.904-94.779-208.367-211.291-208.367zM1398.875 687.633c0 82.060-67.734 148.82-150.964 148.82h-989.743c-83.181 0-150.915-66.759-150.915-148.82v-607.12c0-82.060 67.734-148.82 150.915-148.82h989.743c83.23 0 150.964 66.759 150.964 148.82v607.12zM1288.016 155.508c-5.896-5.701-13.547-8.576-21.197-8.576-7.797 0-15.593 2.924-21.49 8.82l-258.997 258.656-212.314-202.081c-5.848-5.555-13.401-8.381-20.954-8.381-7.504 0-15.057 2.778-20.905 8.284l-212.996 201.545-258.363-258.022c-5.896-5.896-13.693-8.82-21.49-8.82-7.651 0-15.301 2.875-21.197 8.576-11.841 11.549-11.987 30.407-0.292 42.102l257.779 257.438-257.194 243.355c-11.987 11.403-12.377 30.261-0.877 42.102 11.549 11.841 30.651 12.231 42.687 0.877l492.801-466.341 489.828 466.292c12.036 11.354 31.138 11.062 42.687-0.78 11.598-11.841 11.256-30.651-0.731-42.102l-255.001-242.673 258.51-258.168c11.695-11.695 11.549-30.553-0.292-42.102z"  horiz-adv-x="1462" />

    
    <glyph glyph-name="shangpingouwudai2" unicode="&#59273;" d="M830.592 611.584C828.736 627.776 815.04 640 798.784 640L639.04 640 639.04 672c0 88.192-71.68 160-159.744 160S319.552 760.192 319.552 672L319.552 640 159.872 640C143.552 640 129.92 627.776 128.128 611.584l-63.936-576c-1.024-9.088 1.92-18.112 8-24.96C78.208 3.904 86.848 0 95.936 0l766.72 0c9.088 0 17.728 3.904 23.808 10.624 6.016 6.784 8.96 15.872 7.936 24.96L830.592 611.584zM351.424 448c-17.664 0-32 14.336-32 32S333.76 512 351.424 512s32-14.336 32-32S369.152 448 351.424 448zM575.168 640 383.488 640 383.488 672c0 52.928 43.008 96 95.808 96 52.864 0 95.872-43.072 95.872-96L575.168 640zM607.424 448c-17.664 0-32 14.336-32 32S589.76 512 607.424 512s32-14.336 32-32S625.152 448 607.424 448z"  horiz-adv-x="1024" />

    
    <glyph glyph-name="yduierweimasaomiao" unicode="&#58886;" d="M924.845211 349.564723l-825.859267 0c-19.015076 0-34.444487 15.429411-34.444487 34.435277 0 19.015076 15.429411 34.44551 34.444487 34.44551l825.859267 0c19.042705 0 34.44551-15.430434 34.44551-34.44551C959.285604 364.994134 943.888939 349.564723 924.845211 349.564723L924.845211 349.564723 924.845211 349.564723zM856.400353-63.723068 649.761062-63.723068c-19.041682 0-34.43937 15.402805-34.43937 34.444487 0 19.044752 15.397688 34.44244 34.43937 34.44244l206.639291 0c19.010983 0 34.441417 15.429411 34.441417 34.434254L890.841769 211.802126c0 19.042705 15.391549 34.440393 34.44551 34.440393 19.042705 0 34.43016-15.397688 34.43016-34.440393l0-172.20299C959.721533-17.360134 913.363715-63.723068 856.400353-63.723068L856.400353-63.723068 856.400353-63.723068zM339.801615-63.723068 167.597601-63.723068c-56.957223 0-103.317087 46.363957-103.317087 103.322204L64.280514 211.802126c0 19.042705 15.431457 34.440393 34.4363 34.440393 19.015076 0 34.444487-15.397688 34.444487-34.440393l0-172.20299c0-19.004843 15.461133-34.434254 34.4363-34.434254l172.198897 0c19.015076 0 34.44551-15.397688 34.44551-34.44244C374.242008-48.321286 358.811574-63.723068 339.801615-63.723068L339.801615-63.723068 339.801615-63.723068zM98.721931 521.767713c-19.009959 0-34.4363 15.425318-34.4363 34.435277L64.28563 728.401888c0 56.969503 46.354747 103.322204 103.31197 103.322204l172.198897 0c19.015076 0 34.44551-15.430434 34.44551-34.43937 0-19.005866-15.430434-34.435277-34.44551-34.435277L167.597601 762.849444c-18.975167 0-34.4363-15.464203-34.4363-34.446533l0-172.197874C133.161301 537.193031 117.73189 521.767713 98.721931 521.767713L98.721931 521.767713 98.721931 521.767713zM925.287279 521.767713c-19.053961 0-34.44551 15.425318-34.44551 34.435277L890.841769 728.401888c0 18.978237-15.425318 34.446533-34.441417 34.446533L649.761062 762.848421c-19.041682 0-34.43937 15.429411-34.43937 34.435277 0 19.008936 15.397688 34.43937 34.43937 34.43937l206.639291 0c56.963363 0 103.31811-46.352701 103.31811-103.322204l0-172.197874C959.721533 537.193031 944.329984 521.767713 925.287279 521.767713L925.287279 521.767713 925.287279 521.767713zM925.287279 521.767713"  horiz-adv-x="1024" />

    
    <glyph glyph-name="anquanzhongxin" unicode="&#58944;" d="M516.995262-127.997C516.985262-127.997 516.985262-127.997 516.995262-127.997c-28.27 0-55.465 7.305-90.93 24.43C209.770262 0.892 104.451262 84.862 50.416262 195.937-3.163738 306.067-1.528738 436.621 0.946262 634.236c0.585 46.385 1.185 94.34 1.185 147.44l0 23.72 26.01 7c70.145 18.88 146.15 36.57 225.904 52.585 79.29 15.91 167.07 26.12 260.909 30.33l2.985 0.135 2.98-0.285c185.3-17.86 324.459-41.82 480.334-82.695l26.21-6.875 0.06-23.855c0.12-58.99 0.985-113.765 1.75-162.1 6.28-399.634 8.18-520.244-421.909-723.843C572.585262-120.662 544.715262-127.997 516.995262-127.997zM75.901262 757.815c-0.14-44.085-0.65-84.755-1.15-124.28-4.85-386.939-6.15-490.929 387.094-680.853 23.765-11.47 40.25-16.365 55.14-16.365 14.765 0 31.76 4.925 55.135 15.99 203.354 96.27 295.869 165.815 341.379 256.614 46.925 93.645 45.06 212.664 41.96 409.834-0.665 41.905-1.405 88.65-1.67 138.875-140.135 35.4-269.389 56.965-438.009 73.325-88.43-4.1-170.905-13.74-245.164-28.645C202.380262 788.61 137.011262 773.675 75.901262 757.815zM491.205262 277.972M518.880262 362.541c0 0-13.805 3.625-27.605-4.16 0 0-11.58-5.54-17.375-19.36 0 0-4.935-10.07-2.385-23.16 0 0 1.515-11.835 12.11-21.65 0 0 2.51-2.5 6.9-5.06l-0.005 0 0-68.86c0 0 0.125-8.375 9.335-14.07 0 0 8.095-4.55 19.09-1.7 0 0 9.63 2.85 12.2 12.78 0 0 0.33 0.945 0.435 2.99l0 69.31 0 0c4.07 2.52 8.475 6.235 12.145 11.67 0 0 6.135 8.41 6.71 19.75 0 0 1.83 14.79-9.01 27.84C541.425262 348.862 533.610262 359.501 518.880262 362.541zM548.655262 593.546c0 0-42.21 19.44-88-5.89 0 0-31.38-17.05-45.285-58.07 0 0-3.325-10.66-3.495-20.55l0-82.55c0 0 18.76 21.83 54.405 31.045 0 0 49.46 13.3 97.385-3.585 0 0 18.93-5.455 44-26.265l2.39-2.175 0 0.98 0 80.845C610.054262 507.331 608.519262 568.726 548.655262 593.546zM352.015262 421.716l0 91.585c0.68 10.74 2.21 17.31 2.21 17.31 22.005 90.475 95.17 117.595 95.17 117.595 61.91 26.69 119.045 2.045 119.045 2.045 105.06-45.365 101.645-146.67 101.645-146.67l-0.34-82.89c5.8-5.455 20.81-33.09 20.81-33.09 35.815-76.745 9.55-146.33 9.55-146.33-30.19-91.59-112.22-121.43-112.22-121.43-21.065-9.47-39.23-12.11-39.23-12.11-62.93-9.725-107.96 8.95-107.96 8.95-72.65 25.84-107.955 97.3-107.955 97.3-30.02 61.74-17.395 122.46-17.395 122.46"  horiz-adv-x="1031" />

    
    <glyph glyph-name="wodejifen" unicode="&#58902;" d="M913.532 695.436h-44.123c13.881 21.109 22.759 42.618 26.071 63.597 5.679 35.964-5.422 68.364-31.254 91.232-21.84 19.334-50.074 29.555-81.649 29.555-76.32 0-154.199-57.070-193.83-91.089-22.528-19.338-51.511-46.175-75.999-75.167-24.545 29.117-53.662 56.084-76.275 75.495-39.631 34.018-117.51 91.088-193.83 91.088-31.574 0-59.808-10.22-81.649-29.554-25.834-22.868-36.931-55.267-31.253-91.232 3.33-21.089 12.283-42.713 26.287-63.926h-48.275c-58.076 0-105.322-47.188-105.322-105.191v-78.366c0-48.98 33.693-90.25 79.148-101.901-3.267-9.659-4.994-19.839-4.994-30.169v-385.582c0-26.795 11.567-52.612 31.732-70.829 18.466-16.681 42.543-25.868 67.795-25.868h671.389c25.252 0 49.328 9.186 67.795 25.867 20.167 18.217 31.733 44.033 31.733 70.83v385.582c0 10.533-1.795 20.913-5.189 30.741 44.37 12.38 77.017 53.115 77.017 101.326v78.366c0 58.003-47.248 105.191-105.323 105.191zM782.576 807.634c14.066 0 25.122-3.735 33.803-11.419 4.858-4.3 10.134-11.133 7.798-25.923-3.365-21.307-20.858-48.908-50.485-74.854h-179.662c11.658 11.697 25.429 24.523 41.734 38.519 53.745 46.132 108.627 73.677 146.812 73.677zM201.040 770.622c-2.336 14.791 2.941 21.623 7.798 25.923 8.681 7.683 19.735 11.419 33.803 11.419 38.183 0 93.068-27.542 146.812-73.677 16.459-14.13 30.335-27.063 42.063-38.849h-179.609c-29.856 26.043-47.487 53.788-50.865 75.184zM476.679-32.247h-300.572c-16.189 0-29.311 11.854-29.311 26.478v385.582c0 14.624 13.123 26.478 29.311 26.478h300.572v-438.539zM476.679 478.878h-368.932c-18.3 0-33.136 14.777-33.136 33.005v78.366c0 18.228 14.835 33.005 33.136 33.005h368.932v-144.373zM876.812-5.769c0-14.626-13.123-26.478-29.313-26.478h-300.182v438.539h300.182c16.189 0 29.313-11.856 29.313-26.478v-385.582zM946.669 511.882c0-18.228-14.835-33.005-33.137-33.005h-366.215v144.372h366.215c18.301 0 33.137-14.777 33.137-33.005v-78.365z"  horiz-adv-x="1024" />

    
    <glyph glyph-name="yue" unicode="&#59009;" d="M809.35078 106.041384l-81.862449 0-8.950859 0c-26.637684 47.828308-41.169655 96.596012-55.69958 157.136853l91.420129 0c11.314697-47.142693 22.26305-86.946234 39.132252-127.409808l144.135748 0L937.526021 752.653221c0.001023 32.039717-25.972535 58.014298-58.014298 58.014298L148.786163 810.667519c-32.04074 0-58.013275-25.973558-58.013275-58.014298l0-616.884792L256.8913 135.768429c16.396435 40.058344 28.396747 80.45745 39.665395 127.409808l91.420129 0c-14.530948-60.540841-29.060873-109.307522-55.094806-157.136853l-32.07144 0-59.346643 0L90.772888 106.041384l0-84.113723c0-32.04074 25.974581-58.014298 58.013275-58.014298L879.511723-36.086637c32.041764 0 58.014298 25.975605 58.014298 58.014298l0 84.113723L809.35078 106.041384zM478.183312 673.655006l94.448092 0c77.493955-82.943061 123.504872-123.505895 236.719376-219.163535L693.110359 454.491471c-78.704526 59.331293-104.739483 88.99694-167.70249 151.96097-63.568804-62.96403-88.997963-92.629677-167.70249-151.96097L241.463935 454.491471C354.67844 550.149111 400.69038 590.712969 478.183312 673.655006zM580.501652 140.88189c0-22.400173-18.163685-39.957037-39.95806-39.957037L418.247244 100.924853l0 34.508955 47.223534 0c12.712533 0 23.00597 10.293437 23.00597 23.004947L488.476749 307.978583 241.463935 307.978583l0 34.509978 247.013837 0 0 65.99097L344.991824 408.479531l0 34.509978 382.627491 0 0-34.509978L580.501652 408.479531l0-65.99097 228.850152 0 0-34.509978L580.501652 307.978583 580.501652 140.88189z"  horiz-adv-x="1024" />

    
    <glyph glyph-name="shangcheng" unicode="&#58951;" d="M920.525263 586.326741l-100.987843 0c-16.134285 56.609402-40.420169 108.690702-72.050734 153.332689-30.621155 43.216398-66.533574 77.299261-106.741075 101.302266C598.040022 866.455414 552.491398 879.381361 505.367604 879.381361c-47.124811 0-92.672418-12.925947-135.378006-38.419664-40.208518-24.003005-76.120937-58.085868-106.741075-101.302266-31.630565-44.641987-55.915432-96.723288-72.050734-153.332689l-93.525126 0c-50.044164 0-90.758405-40.714241-90.758405-90.758405l0-531.674344c0-50.045182 40.714241-90.758405 90.758405-90.758405l822.853618 0c50.045182 0 90.758405 40.714241 90.758405 90.758405L1011.284686 495.568336C1011.283668 545.6125 970.570445 586.326741 920.525263 586.326741zM317.215345 701.421908c51.090206 72.107717 117.91073 111.818653 188.152259 111.818653 70.240512 0 137.061035-39.710936 188.151241-111.818653 23.710968-33.46521 42.780887-72.143332 56.804771-115.095167L260.411591 586.326741C274.435476 629.278576 293.504377 667.956698 317.215345 701.421908zM945.142868-36.106008c0-13.574127-11.044496-24.617606-24.617606-24.617606L97.671645-60.723614c-13.574127 0-24.617606 11.044496-24.617606 24.617606L73.054039 495.568336c0 13.574127 11.043478 24.617606 24.617606 24.617606l78.747236 0c-5.51716-33.512017-8.370373-68.10569-8.370373-103.281402 0-11.903309 0.336809-23.875811 0.998217-35.784208l-4.559645 0c-18.468546 0-33.579175-15.110629-33.579175-33.579175l0-2.882721c0-18.468546 15.110629-33.579175 33.579175-33.579175l72.054805 0c18.468546 0 33.579175 15.110629 33.579175 33.579175l0 2.882721c0 18.468546-15.110629 33.579175-33.579175 33.579175l-1.239377 0c-0.735689 11.891098-1.114218 23.874794-1.114218 35.784208 0 35.270345 3.162548 69.824333 9.394029 103.281402l523.5665 0c6.231481-33.457069 9.394029-68.011058 9.394029-103.281402 0-12.214679-0.39481-24.512798-1.169166-36.710179-14.746346-3.535989-25.795929-16.861834-25.795929-32.652186l0-2.882721c0-18.468546 15.110629-33.579175 33.579175-33.579175l72.054805 0c18.468546 0 33.579175 15.110629 33.579175 33.579175l0 2.882721c0 18.468546-15.110629 33.579175-33.579175 33.579175l-13.526302 0c0.66039 11.910432 0.998217 23.882934 0.998217 35.784208 0 35.175712-2.852195 69.769386-8.370373 103.281402l86.209953 0c13.574127 0 24.617606-11.043478 24.617606-24.617606L945.140833-36.106008z"  horiz-adv-x="1027" />

    
    <glyph glyph-name="shape" unicode="&#58922;" d="M998.644405 755.091725 904.478253 849.257875C888.580072 865.156056 866.567207 873.716616 844.554339 873.716616 821.318536 873.716616 800.528607 865.156056 784.630426 849.257875L738.158818 802.786268 738.158818 802.786268 245.3152 309.942648C244.092263 308.719712 242.869326 307.496776 242.869326 306.273837 242.869326 306.273837 242.869326 305.050901 241.646389 305.050901 240.423452 303.827965 240.423452 302.605026 239.200515 301.38209 239.200515 301.38209 239.200515 301.38209 239.200515 300.159154 239.200515 298.936215 239.200515 298.936215 237.977578 297.713278L170.716042 51.902937C168.270168 43.342378 170.716042 33.558883 176.830727 27.444197 181.722475 22.55245 187.83716 20.106574 195.174782 20.106574 197.620656 20.106574 200.06653 20.106574 201.289467 21.329513L448.322744 89.813986C449.545683 89.813986 449.545683 89.813986 450.768619 91.036922L451.991555 91.036922C453.214494 91.036922 454.43743 92.259861 455.660366 93.482797 455.660366 93.482797 456.883305 93.482797 456.883305 94.705733 458.106242 95.928669 459.329178 95.928669 460.552117 97.151608L952.172797 588.772289 998.644405 635.243896C1031.663703 667.040259 1031.663703 722.072425 998.644405 755.091725L998.644405 755.091725ZM289.340933 98.374545 247.761074 139.954402 275.888625 243.904051 393.29058 126.502096 289.340933 98.374545 289.340933 98.374545ZM299.124429 292.821531 755.279938 748.977039 767.509308 736.747669 809.089166 695.16781 352.933656 239.012301 299.124429 292.821531 299.124429 292.821531ZM442.20806 149.7379 388.39883 203.547127 844.554339 659.702636 898.36357 605.893409 442.20806 149.7379 442.20806 149.7379ZM961.956295 669.486134 933.828744 641.358583 790.745112 784.442213 820.095599 813.792701C826.210283 819.907387 834.770845 823.576198 844.554339 823.576198 854.337837 823.576198 862.898396 819.907387 869.013079 813.792701L963.179231 719.62655C975.408601 704.951308 975.408601 682.93844 961.956295 669.486134L961.956295 669.486134ZM891.025947 420.006981C877.573638 420.006981 865.344268 409.000547 865.344268 394.325302L865.344268-16.581536C865.344268-37.371464 848.223151-54.492582 827.433222-54.492582L132.804994-54.492582C112.015065-54.492582 94.893946-37.371464 94.893946-16.581536L94.893946 679.269629C94.893946 700.059558 112.015065 717.180678 132.804994 717.180678L543.711831 717.180678C557.16414 717.180678 569.39351 728.18711 569.39351 742.862354 569.39351 757.537599 558.387077 768.544032 543.711831 768.544032L132.804994 768.544032C83.887513 768.544032 44.753528 729.410047 44.753528 680.492565L44.753528-14.13566C44.753528-63.053143 83.887513-102.187125 132.804994-102.187125L827.433222-102.187125C876.350702-102.187125 915.484687-63.053143 915.484687-14.13566L915.484687 394.325302C916.707623 407.777611 905.701189 420.006981 891.025947 420.006981L891.025947 420.006981Z"  horiz-adv-x="1055" />

    
    <glyph glyph-name="xiangyou" unicode="&#58892;" d="M761.055557 363.871953c0.512619 0.992555 1.343475 1.823411 1.792447 2.848649 8.800538 18.304636 5.919204 40.703346-9.664077 55.424808L399.935923 756.256202c-19.264507 18.208305-49.631179 17.344765-67.872168-1.888778-18.208305-19.264507-17.375729-49.631179 1.888778-67.872168l316.960409-299.839269L335.199677 82.368284c-19.071845-18.399247-19.648112-48.767639-1.247144-67.872168 9.407768-9.791372 21.984142-14.688778 34.560516-14.688778 12.000108 0 24.000215 4.479398 33.311652 13.439914l350.048434 337.375729c0.672598 0.672598 0.927187 1.599785 1.599785 2.303346 0.512619 0.479935 1.056202 0.832576 1.567101 1.343475C757.759656 357.120172 759.199462 360.608735 761.055557 363.871953z"  horiz-adv-x="1024" />

    
    <glyph glyph-name="gouwu" unicode="&#59509;" d="M825.827033 675.360857 493.738589 675.360857 613.555465 796.93782c13.888312 14.112416 29.186739 21.281699 45.731554 21.665439 16.642029 0.255827 31.93841-6.559393 45.859467-20.800745L825.827033 675.360857 825.827033 675.360857zM893.83187 645.758656c16.896832 0 30.051433-2.208295 39.362496-6.783497 9.472745-4.704139 16.064884-10.401908 20.033265-17.090237 3.968381-6.817266 5.697769-13.983479 5.439896-21.665439-0.353041-7.68196-1.343601-14.241352-3.198855-19.810185-1.728364-5.568832-5.728468-16.832364-11.842723-34.050514-5.951549-17.216103-12.542664-36.130895-19.518542-56.707536l-20.739347-61.282738c-6.942109-20.291139-12.545734-36.259832-16.767895-47.90915-7.936763-24.642237-17.796318-41.569768-29.570479-51.106981-11.839653-9.53619-26.499537-14.369266-44.00319-14.369266l-31.713282 0-58.019415 0-76.198449 0-85.254709 0-224.943169 0 12.672624-82.82231 458.111672 0c28.92989 0 43.490513-12.654204 43.490513-37.874609 0-12.287861-2.848884-22.784936-8.577353-31.680537-5.855358-8.961092-17.120936-13.378705-34.048467-13.378705l-43.49256 0-83.524299 0L576.370565 149.226952 470.248595 149.226952l-88.004333 0-48.964178 0c-12.160971 0-22.24156 2.689249-30.465872 8.257058-8.192589 5.439896-14.912641 12.736069-20.35356 21.696138-5.472642 8.898671-9.825786 18.562774-13.184277 28.92989-3.361561 10.431583-5.824659 20.338211-7.712659 29.488615-0.608867 3.713578-2.208295 12.642948-4.960988 26.755364l-9.952676 52.997028-13.153578 70.914096-14.527878 78.853929c-11.45796 62.021565-24.514323 131.114177-39.043225 207.248158L111.95328 674.367227c-9.089006 0-16.672728 2.366907-22.785959 6.943133-5.952572 4.578272-10.912537 10.147104-14.912641 16.61133-3.968381 6.399757-6.655584 13.34289-8.192589 20.641109-1.471514 7.424086-2.240017 14.112416-2.240017 20.318768 0 12.226462 4.095271 22.404266 12.320607 30.435173 8.097422 7.936763 19.137873 11.904121 33.05893 11.904121l19.007913 0 19.009959 0 22.754237 0 30.817889 0c12.065803 0 21.76163-1.727341 29.090549-5.472642 7.199982-3.711532 12.928451-8.28878 17.152658-13.856589 4.224208-5.439896 7.328919-11.361769 9.089006-17.442254l4.575202-15.743566c1.12052-4.802376 2.368954-11.745509 3.617387-20.674878l3.615341-27.234271c1.856277-11.008728 3.584642-22.655999 5.439896-35.042097L893.83187 645.754562 893.83187 645.758656zM741.438041 122.475681c11.423167 0 22.496363-2.113127 33.026184-6.464225 10.592242-4.28663 19.647479-10.240225 27.265994-17.921161 7.553023-7.68196 13.665231-16.832364 18.113543-27.265994 4.605901-10.371208 6.846942-21.505803 6.846942-33.155121s-2.241041-22.659069-6.846942-33.217543c-4.449335-10.371208-10.56052-19.392676-18.113543-27.074635-7.617491-7.68196-16.673751-13.888312-27.265994-18.432815-10.529821-4.608971-21.603017-6.976902-33.026184-6.976902-11.584849 0-22.370497 2.367931-32.67519 6.976902-10.337439 4.54348-19.168572 10.750855-26.721595 18.432815-7.583722 7.68196-13.697977 16.703427-18.179035 27.074635-4.575202 10.558473-6.816243 21.567201-6.816243 33.217543s2.241041 22.784936 6.816243 33.155121c4.481058 10.432607 10.595312 19.584034 18.179035 27.265994 7.553023 7.680936 16.385179 13.633508 26.721595 17.921161C719.066521 120.361531 729.852168 122.475681 741.438041 122.475681M364.129696 124.329912c11.393491 0 22.336728-2.238994 32.54523-6.464225 10.30674-4.351098 19.23304-10.239202 26.850531-17.921161 7.553023-7.67889 13.538341-16.832364 18.145266-27.26497 4.449335-10.368138 6.688329-21.506826 6.688329-33.155121 0-11.647271-2.238994-22.784936-6.688329-33.217543-4.605901-10.368138-10.592242-19.392676-18.145266-27.074635-7.617491-7.67889-16.513092-13.888312-26.850531-18.497283-10.208503-4.544503-21.151739-6.912433-32.54523-6.912433-12.223393 0-23.393803 2.366907-33.602306 6.912433-10.304693 4.608971-19.265786 10.818393-26.816762 18.497283-7.456832 7.68196-13.570063 16.706497-18.176988 27.074635-4.449335 10.432607-6.65763 21.570271-6.65763 33.217543 0 11.649318 2.208295 22.788006 6.65763 33.155121 4.606925 10.431583 10.721179 19.586081 18.176988 27.26497 7.550976 7.68196 16.512069 13.570063 26.816762 17.921161C340.768639 122.091942 351.906304 124.329912 364.129696 124.329912"  horiz-adv-x="1024" />

    
    <glyph glyph-name="jinbi" unicode="&#58896;" d="M651.705344-63.311699c-138.889257 0-251.474428 112.64964-251.474428 251.613598 0 138.966005 112.585171 251.613598 251.474428 251.613598s251.472382-112.647593 251.472382-251.613598C903.177726 49.337941 790.594601-63.311699 651.705344-63.311699L651.705344-63.311699zM651.705344 328.088596c-77.163427 0-139.711995-62.587454-139.711995-139.78772 0-77.205383 62.548568-139.785673 139.711995-139.785673s139.714042 62.579267 139.714042 139.785673C791.420409 265.501142 728.869794 328.088596 651.705344 328.088596L651.705344 328.088596zM679.660023 104.440933 623.749642 104.440933 623.749642 160.352337l-55.876612 0 0 55.912427 55.876612 0 0 55.912427 55.910381 0 0-55.912427 55.878658 0 0-55.912427-55.878658 0L679.660023 104.440933 679.660023 104.440933zM791.420409 534.267399l0-73.510224c-8.398274 4.326539-16.504906 8.983605-25.314549 12.532431C782.230096 491.358123 791.420409 511.730103 791.420409 534.267399L791.420409 534.267399zM696.866916 491.278305c-14.84101 2.205225-29.67895 4.548596-45.161572 4.548596-64.979944 0-125.042901-20.428262-174.675298-54.851259-7.05672-0.231267-13.759375-1.061169-20.919449-1.061169-185.194886 0-335.290369 75.102489-335.290369 167.745469l0 55.905264c0 92.64298 150.095483 167.745469 335.290369 167.745469 185.18056 0 335.309812-75.102489 335.309812-167.745469l0-55.905264C791.420409 562.37762 755.188206 521.453558 696.866916 491.278305L696.866916 491.278305zM417.664983 385.508353c-25.860994-30.693046-45.509497-66.23554-57.844429-105.465007-137.914046 20.801768-239.001349 84.095303-239.001349 159.871127l0 94.352925C120.819205 448.211441 250.83742 393.015328 417.664983 385.508353L417.664983 385.508353zM347.926666 223.949794c-1.378393-11.837606-3.588735-23.433712-3.588735-35.647895 0-26.092261 4.227278-51.007721 10.350742-75.206866-135.2688 21.609157-233.868445 84.248799-233.868445 159.082158l0 94.351901C120.819205 292.941098 216.149387 242.007055 347.926666 223.949794L347.926666 223.949794zM377.194246 52.579775c22.747073-45.931099 55.940057-85.553515 97.438193-114.954125-6.262634-0.169869-12.183484-0.937348-18.522865-0.937348-185.194886 0-335.290369 75.106582-335.290369 167.752632l0 94.349855C120.819205 119.807922 230.275105 66.660468 377.194246 52.579775L377.194246 52.579775z"  horiz-adv-x="1024" />

    
    <glyph glyph-name="mima" unicode="&#58927;" d="M497.256574 91.366352c-20.181261 0-36.571356 16.339035-36.571356 36.571356l0 109.777891c0 20.232321 16.383712 36.571356 36.571356 36.571356 20.181261 0 36.584121-16.339035 36.584121-36.571356l0-109.777891C533.840694 107.705387 517.437835 91.366352 497.256574 91.366352zM862.97013-127.997958 131.52387-127.997958c-60.486342 0-109.714067 49.208578-109.714067 109.714067L21.809803 384.001021c0 60.441665 49.221343 109.69492 109.714067 109.69492L862.97013 493.695941c60.473577 0 109.745979-49.253255 109.745979-109.69492l0-402.284912C972.716109-78.78938 923.443707-127.997958 862.97013-127.997958zM131.52387 420.572377c-20.149349 0-36.571356-16.466684-36.571356-36.571356l0-402.284912c0-20.168496 16.415624-36.571356 36.571356-36.571356L862.97013-54.855246c20.200408 0 36.571356 16.402859 36.571356 36.571356L899.541486 384.001021c0 20.104672-16.370947 36.571356-36.571356 36.571356L131.52387 420.572377zM753.224151 420.572377c-20.168496 0-36.539443 16.402859-36.539443 36.571356L716.684708 605.69492c0 124.297932-116.862395 217.143222-221.342864 217.143222-106.937707 0-217.526168-81.025019-217.526168-216.651774L277.815675 457.143732c0-20.168496-16.383712-36.571356-36.552208-36.571356-20.200408 0-36.584121 16.402859-36.584121 36.571356L204.679346 606.19275C204.666582 787.594332 352.483789 896 495.341843 896c139.328568 0 294.485576-119.223896 294.485576-290.30508L789.827419 457.143732C789.827419 436.975236 773.488384 420.572377 753.224151 420.572377z"  horiz-adv-x="1024" />

    
    <glyph glyph-name="weixingongzhonghao" unicode="&#58960;" d="M175.181658-19.640212c-13.845973 0-25.885949 11.437978-25.885949 25.885949l0 74.647854c0 148.69371 89.697825 281.133451 228.157554 336.517343l18.661964 7.825985-16.253968 12.641975c-51.771899 40.93592-81.87184 101.737801-81.87184 167.355673 0 117.389771 95.717813 212.505585 212.505585 212.505585 117.389771 0 212.505585-95.717813 212.505585-212.505585 0-65.617872-29.497942-126.419753-81.87184-167.355673l-16.253968-12.641975 18.661964-7.825985c139.061728-55.383892 228.157554-187.221634 228.157554-336.517343l0-74.647854c0-13.845973-11.437978-25.885949-25.885949-25.885949L175.181658-19.640212 175.181658-19.640212zM512.300999 392.126984c-171.569665 0-311.233392-139.061728-311.233392-311.233392l0-48.761905 621.864785 0 0 48.761905C822.932393 252.463257 683.870664 392.126984 512.300999 392.126984L512.300999 392.126984zM511.699001 765.968254c-89.095826 0-161.335685-72.239859-161.335685-161.335685s72.239859-161.335685 161.335685-161.335685c89.095826 0 161.335685 72.239859 161.335685 161.335685S600.794827 765.968254 511.699001 765.968254L511.699001 765.968254zM25.885949 92.933568c-13.845973 0-25.885949 11.437978-25.885949 25.885949l0 57.791887c0 107.75779 59.597884 205.883598 154.713698 255.247501l13.243974 6.621987-10.23398 11.437978c-29.497942 32.507937-45.751911 74.045855-45.751911 117.389771 0 81.269841 55.383892 151.703704 134.245738 170.365667 1.805996 0.601999 4.213992 0.601999 6.019988 0.601999 12.039976 0 22.273956-7.825985 25.283951-19.865961 3.009994-13.845973-5.417989-27.691946-18.661964-30.70194-55.985891-13.845973-94.513815-63.209877-94.513815-121.001764 0-48.761905 28.895944-93.309818 73.443857-113.175779 3.009994-1.203998 5.417989-3.009994 7.825985-5.417989 0.601999-0.601999 0.601999-0.601999 1.203998-1.203998 1.203998-1.203998 1.805996-3.009994 3.009994-5.417989l0.601999-0.601999c0.601999-1.203998 0.601999-1.805996 1.203998-3.009994 0-0.601999 0.601999-1.203998 0.601999-1.805996 0-0.601999 0-1.805996 0-3.009994l0-0.601999c0.601999-2.407995 0.601999-4.213992 0.601999-6.019988 0-0.601999-0.601999-1.203998-0.601999-1.805996l-0.601999-1.203998c-0.601999-1.203998-0.601999-1.805996-0.601999-3.009994 0-0.601999 0-1.203998-0.601999-1.805996-3.611993-7.825985-10.835979-13.845973-19.865961-15.049971l-0.601999 0-0.601999 0c-104.747795-26.487948-178.191652-120.399765-178.191652-228.759553l0-57.791887C51.1699 103.769547 39.731922 92.933568 25.885949 92.933568L25.885949 92.933568zM998.114051 92.933568c-13.845973 0-25.885949 11.437978-25.885949 25.885949l0 57.791887c0 108.359788-73.443857 202.271605-178.191652 228.759553l-0.601999 0-0.601999 0c-9.029982 1.203998-16.253968 6.621987-19.865961 15.049971 0 0.601999 0 1.203998-0.601999 1.805996 0 1.203998-0.601999 1.805996-0.601999 3.009994l-0.601999 1.203998c0 0.601999-0.601999 1.203998-0.601999 1.805996 0 1.805996 0 3.009994 0.601999 5.417989l0 0.601999c0 0.601999 0 1.805996 0 3.009994 0.601999 0.601999 0.601999 1.203998 0.601999 1.805996 0 0 0.601999 0.601999 0.601999 1.805996l0.601999 1.203998c1.203998 3.009994 2.407995 4.213992 3.611993 5.417989 0.601999 0.601999 0.601999 0.601999 1.203998 1.203998 1.805996 1.805996 4.815991 4.213992 7.825985 5.417989 44.547913 19.865961 73.443857 64.413874 73.443857 113.175779 0 55.985891-37.925926 105.349794-91.503821 119.797766-13.845973 3.611993-22.273956 18.059965-18.059965 31.905938 3.009994 11.437978 13.243974 19.263962 24.681952 19.263962 2.407995 0 4.213992-0.601999 6.621987-0.601999 76.453851-20.46796 129.429747-90.299824 129.429747-169.16167 0-43.343915-16.253968-84.881834-45.751911-117.389771l-10.23398-11.437978 13.243974-6.621987c95.717813-49.363904 154.713698-147.489712 154.713698-255.247501l0-57.791887C1024 103.769547 1012.562022 92.933568 998.114051 92.933568L998.114051 92.933568z"  horiz-adv-x="1024" />

    
    <glyph glyph-name="touxiang" unicode="&#59469;" d="M801.390592 261.505024c12.304384 19.668992 21.929984 40.849408 28.91776 63.463424 1.388544-0.073728 2.772992-0.159744 4.165632-0.159744 50.323456 0 91.262976 46.841856 91.262976 104.411136s-40.93952 104.40704-91.262976 104.40704c-1.47456 0-2.953216-0.045056-4.427776-0.12288-0.77824 3.313664-1.589248 6.643712-2.43712 9.986048 61.161472 34.9184 83.021824 83.644416 84.09088 86.110208 2.342912 5.398528 1.613824 11.644928-1.916928 16.355328-3.534848 4.714496-9.334784 7.163904-15.163392 6.43072-50.19648-6.344704-84.992 29.093888-129.024 73.949184-46.022656 46.891008-103.309312 105.24672-195.928064 124.74368-95.801344 20.160512-162.463744-10.89536-201.510912-40.50944-32.751616-24.834048-51.818496-52.55168-59.121664-64.499712C258.650112 728.219648 223.0272 698.023936 203.10016 656.252928c-20.123648-42.1888-20.21376-88.006656-15.470592-122.826752-47.808512-3.223552-85.843968-48.72192-85.843968-104.206336 0-57.56928 40.93952-104.411136 91.262976-104.411136 8.269824 0 16.355328 1.236992 24.174592 3.6864 28.495872-64.892928 88.30976-157.462528 204.660736-189.93152l0-15.060992c-38.834176-6.254592-145.321984-31.080448-242.900992-123.060224-6.582272-6.209536-6.889472-16.576512-0.684032-23.16288 3.223552-3.416064 7.569408-5.144576 11.927552-5.144576 4.030464 0 8.06912 1.478656 11.235328 4.460544 42.901504 40.439808 88.076288 66.92864 127.434752 84.262912 19.484672-87.650304 97.931264-151.707648 189.394944-151.707648 94.212096 0 173.314048 66.53952 190.541824 157.335552 40.660992-16.5888 89.358336-43.327488 136.077312-86.310912 3.149824-2.895872 7.122944-4.329472 11.087872-4.329472 4.419584 0 8.830976 1.78176 12.058624 5.287936 6.127616 6.660096 5.697536 17.022976-0.96256 23.150592-96.227328 88.551424-198.483968 112.902144-236.306432 119.164928l0 13.971456C663.601152 146.542592 748.76928 177.369088 801.390592 261.505024zM892.96896 429.21984c0-37.875712-24.141824-68.898816-54.554624-71.397376 8.073216 43.106304 7.561216 90.824704-1.593344 142.893056C867.98336 499.187712 892.96896 467.750912 892.96896 429.21984zM613.015552 92.807168c0.55296-0.049152 26.29632-2.523136 64.544768-14.88896-12.1856-78.127104-79.1552-135.999488-159.268864-135.999488-77.811712 0-144.252928 55.78752-158.437376 131.264512 46.44864 16.519168 79.110144 19.562496 79.736832 19.615744 8.507392 0.688128 15.065088 7.794688 15.065088 16.330752L454.656 150.528c0 6.795264-4.13696 12.619776-10.031104 15.106048-1.458176 0.913408-3.039232 1.671168-4.804608 2.097152-170.397696 41.181184-212.992 233.209856-213.4016 235.147264-1.867776 8.843264-10.539008 14.491648-19.39456 12.652544-8.855552-1.859584-14.528512-10.543104-12.673024-19.398656 0.45056-2.1504 3.54304-16.265216 10.79296-36.982784-3.948544-1.024-7.9872-1.568768-12.095488-1.568768-32.256 0-58.494976 32.137216-58.494976 71.643136 0 39.501824 26.238976 71.63904 58.494976 71.63904 0.28672 0 0.57344-0.04096 0.86016-0.049152 3.506176-13.996032 6.81984-22.908928 7.262208-24.072192 2.490368-6.537216 8.708096-10.555392 15.314944-10.555392 1.937408 0 3.91168 0.344064 5.828608 1.077248 8.454144 3.219456 12.701696 12.685312 9.478144 21.143552-0.118784 0.311296-4.44416 11.93984-8.249344 29.892608-0.032768 0.217088-0.090112 0.425984-0.135168 0.638976-6.475776 30.928896-11.255808 80.203776 9.265152 123.211776 16.699392 35.008512 47.84128 60.182528 92.561408 74.83392 4.071424 1.335296 7.45472 4.206592 9.433088 8.003584 0.667648 1.282048 68.493312 127.660032 228.2496 94.035968 82.927616-17.457152 134.12352-69.615616 179.294208-115.634176 38.617088-39.34208 75.444224-76.865536 124.977152-83.488768-15.368192-19.849216-44.294144-47.988736-92.868608-64.622592-100.200448-34.316288-241.352704-4.145152-408.20736 87.228416-4.83328 2.646016-10.665984 2.686976-15.540224 0.106496-4.866048-2.576384-8.114176-7.430144-8.638464-12.914688-0.06144-0.630784-6.71744-63.377408-65.875968-95.797248-7.933952-4.349952-10.842112-14.307328-6.49216-22.24128 4.354048-7.933952 14.307328-10.838016 22.24128-6.49216 49.913856 27.353088 69.976064 71.356416 77.856768 98.234368 168.972288-89.02656 308.609024-115.65056 415.27296-79.126528 4.3008 1.47456 8.429568 3.05152 12.47232 4.673536 15.589376-64.569344 17.969152-122.052608 7.274496-171.966464-2.428928-1.953792-4.333568-4.612096-5.34528-7.798784-1.220608-3.842048-0.88064-7.770112 0.561152-11.218944-6.189056-21.057536-14.831616-40.681472-26.075136-58.728448-57.020416-91.52512-161.456128-112.644096-162.476032-112.8448-7.737344-1.462272-13.33248-8.224768-13.33248-16.09728l0-41.152512C598.016 100.630528 604.545024 93.540352 613.015552 92.807168z"  horiz-adv-x="1024" />

    
    <glyph glyph-name="jiaoyijilu" unicode="&#58934;" d="M640.745765 727.958147C652.045413 727.958147 661.205589 737.802596 661.205589 749.946339 661.205589 762.090082 652.045413 771.934531 640.745765 771.934531L383.254235 771.934531C371.954587 771.934531 362.794411 762.090082 362.794411 749.946339 362.794411 737.802596 371.954587 727.958147 383.254235 727.958147L640.745765 727.958147ZM845.934407 727.958147C883.618626 727.958147 914.096417 698.510223 914.096417 662.019083L914.096417 46.298681C914.096417 9.87147 883.578901-19.640382 845.922397-19.640382L178.077603-19.640382C140.386073-19.640382 109.903583 9.808192 109.903583 46.298681L109.903583 662.019083C109.903583 698.426779 140.464568 727.958147 178.114322 727.958147L205.584878 727.958147C218.154974 727.958147 228.345052 737.802596 228.345052 749.946339 228.345052 762.090082 218.154974 771.934531 205.584878 771.934531L178.114322 771.934531C115.321973 771.934531 64.383234 722.711947 64.383234 662.019083L64.383234 46.298681C64.383234-14.479297 115.24588-63.616766 178.077603-63.616766L845.922397-63.616766C908.729269-63.616766 959.616766-14.406198 959.616766 46.298681L959.616766 662.019083C959.616766 722.796411 908.760164 771.934531 845.934407 771.934531L813.967561 771.934531C801.397464 771.934531 791.207386 762.090082 791.207386 749.946339 791.207386 737.802596 801.397464 727.958147 813.967561 727.958147L845.934407 727.958147ZM273.271058 660.030339C273.271058 647.669744 283.291301 637.649501 295.651896 637.649501 308.012492 637.649501 318.032735 647.669744 318.032735 660.030339L318.032735 809.235928C318.032735 821.596524 308.012492 831.616766 295.651896 831.616766 283.291301 831.616766 273.271058 821.596524 273.271058 809.235928L273.271058 660.030339ZM705.967265 660.030339C705.967265 647.669744 715.987508 637.649501 728.348104 637.649501 740.708699 637.649501 750.728942 647.669744 750.728942 660.030339L750.728942 809.235928C750.728942 821.596524 740.708699 831.616766 728.348104 831.616766 715.987508 831.616766 705.967265 821.596524 705.967265 809.235928L705.967265 660.030339ZM772.514023 443.682236C785.203647 443.682236 795.490619 453.702478 795.490619 466.063074 795.490619 478.42367 785.203647 488.443912 772.514023 488.443912L251.485977 488.443912C238.796353 488.443912 228.509381 478.42367 228.509381 466.063074 228.509381 453.702478 238.796353 443.682236 251.485977 443.682236L772.514023 443.682236ZM608.983633 219.873852C621.344228 219.873852 631.364471 229.894095 631.364471 242.254691 631.364471 254.615286 621.344228 264.635529 608.983633 264.635529L250.89022 264.635529C238.529624 264.635529 228.509381 254.615286 228.509381 242.254691 228.509381 229.894095 238.529624 219.873852 250.89022 219.873852L608.983633 219.873852Z"  horiz-adv-x="1024" />

    
    <glyph glyph-name="xiangzuo" unicode="&#58963;" d="M671.968176-15.99957c-12.287381 0-24.576482 4.67206-33.951566 14.047144L286.048434 350.015751c-18.751888 18.719204-18.751888 49.12028 0 67.872168L638.016611 769.888778c18.751888 18.751888 49.12028 18.751888 67.872168 0 18.751888-18.719204 18.751888-49.12028 0-67.872168l-318.016611-318.047574L705.888778 65.952426c18.751888-18.751888 18.751888-49.12028 0-67.872168C696.544658-11.32751 684.255557-15.99957 671.968176-15.99957z"  horiz-adv-x="1024" />

    
    <glyph glyph-name="shouji" unicode="&#59084;" d="M891.904 340.992c0 0-7.68 24.064-27.648 24.064-20.48 0-27.136-24.064-27.136-24.064M837.12 342.016l0-169.472L199.168 172.544 199.168 802.816c0 15.872 9.216 35.84 47.616 35.84l542.72 0c17.92 0 48.128-17.92 48.128-35.84l0-215.04c0 0 4.608-25.088 28.16-25.088 23.04 1.024 26.112 25.088 26.112 25.088l0 215.04c0 50.176-46.592 89.6-101.888 89.6l-542.72 0c-55.296 0-101.888-40.96-101.888-89.6l0-838.144c0-50.176 46.592-89.6 101.888-89.6l542.72 0c55.296 0 101.888 40.96 101.888 89.6l0 376.32M837.632-35.328c0-15.872-28.16-35.84-46.08-35.84L246.784-71.168c-26.112 0.512-47.616 14.336-47.616 35.84l0 150.528 638.464 0L837.632-35.328zM641.024 772.608c19.456 0 33.792-12.8 33.792-27.136 0-15.872-15.872-27.136-33.792-27.136L395.776 718.336c-19.456 0-33.792 12.8-33.792 27.136 0 15.872 15.872 27.136 33.792 27.136L641.024 772.608zM900.608 468.48c0-19.968-16.384-36.352-36.352-36.352s-36.352 16.384-36.352 36.352 16.384 36.352 36.352 36.352S900.608 488.448 900.608 468.48z"  horiz-adv-x="1024" />

    
    <glyph glyph-name="duihuanqingkuang" unicode="&#59144;" d="M907.832889 440.888889 454.599111 440.888889 225.678222 440.888889 454.599111 668.444444 454.599111 554.666667 871.708444 554.666667C807.253333 688.696889 670.947556 782.222222 511.829333 782.222222 310.385778 782.222222 143.701333 633.571556 115.825778 440.888889L0.170667 440.888889C28.615111 696.888889 246.727111 896 511.829333 896 776.874667 896 994.986667 696.888889 1023.488 440.888889L912.384 440.888889 907.832889 440.888889ZM115.825778 327.111111 511.829333 327.111111 740.693333 327.111111 511.829333 99.555556 511.829333 213.333333 151.950222 213.333333C216.348444 79.303111 352.654222-14.222222 511.829333-14.222222 713.216-14.222222 879.900444 134.485333 907.832889 327.111111L1023.488 327.111111C994.986667 71.168 776.874667-128 511.829333-128 246.727111-128 28.615111 71.168 0.170667 327.111111L53.987556 327.111111 115.825778 327.111111Z"  horiz-adv-x="1024" />

    
    <glyph glyph-name="email1" unicode="&#58999;" d="M1052.133966 239.598644a24.315661 24.315661 0 0 1-34.295322 0.64217L823.053017 54.133153l-90.320271 89.678101c-9.476339 9.406915-24.853695 9.406915-34.330034 0s-9.476339-24.66278 0-34.087051l107.190237-106.40922c4.703458-4.703458 10.934237-7.063864 17.130305-7.063864 6.091932 0 12.131797 2.204203 16.835254 6.751457l211.898577 202.526373c9.649898 9.198644 9.962305 24.471864 0.676881 34.069695z m-178.453695 206.535593c-159.431593 0-289.115119-128.763661-289.115118-287.067118 0-158.286102 129.700881-287.067119 289.115118-287.067119C1033.111864-128 1162.847458 0.781017 1162.847458 159.067119c0 158.303458-129.735593 287.067119-289.167187 287.067118z m0-525.919457c-132.668746 0-240.587932 107.155525-240.587932 238.887051s107.936542 238.887051 240.587932 238.88705c132.686102 0 240.64-107.155525 240.64-238.88705s-107.971254-238.887051-240.64-238.887051zM581.423729 327.749424L1112.011932 818.818169c1.076068-3.610034 2.273627-7.202712 2.273627-11.159864v-383.392542h48.527187V807.658305C1162.847458 856.393763 1122.911458 896 1073.880949 896H88.966508C39.936 896 0 856.393763 0 807.658305v-575.036746c0-48.735458 39.936-88.341695 88.966508-88.341695h423.710373v48.180068H108.578712L418.069695 478.936949l163.354034-151.187525zM1072.197424 847.819932L581.423729 393.580475 90.650034 847.819932h981.54739zM56.424136 210.076203c-4.599322 6.525831-7.896949 14.006237-7.89695 22.545356V807.658305c0 3.957153 1.197559 7.549831 2.273628 11.159864l331.671864-306.991728L56.424136 210.076203z"  horiz-adv-x="1162" />

    
    <glyph glyph-name="shangpinfenlei" unicode="&#58885;" d="M443.744745 418.142731h34.132662V657.071366a238.928634 238.928634 0 1 1-238.928634-238.928635h204.795972zM68.285463 657.071366a157.556368 157.556368 0 0 0 170.66331 170.66331 157.556368 157.556368 0 0 0 170.66331-170.66331v-170.663311H238.948773a157.556368 157.556368 0 0 0-170.66331 170.663311z m341.32662-375.459283v-170.66331a157.556368 157.556368 0 0 0-170.66331-170.663311 170.66331 170.66331 0 0 0 0 341.326621h170.66331zM0.020139 110.948773a238.928634 238.928634 0 0 1 477.857268 0v238.928634H238.948773a235.856695 235.856695 0 0 1-238.928634-238.928634z m614.387917 375.459282V657.071366a157.556368 157.556368 0 0 0 170.66331 170.66331 170.66331 170.66331 0 0 0 0-341.326621h-170.66331z m409.591944 170.663311a238.928634 238.928634 0 0 1-477.857268 0v-238.928635h238.928634a235.856695 235.856695 0 0 1 238.928634 238.928635z m0-546.122593a235.856695 235.856695 0 0 1-238.928634 238.928634h-238.928634v-238.928634a235.856695 235.856695 0 0 1 238.928634-238.928635 223.807865 223.807865 0 0 1 103.114772 24.916844c24.404853 13.653065 39.662153 30.719396 33.415876 43.34848-23.449139 42.665828-136.530648 0-136.530648 0a157.556368 157.556368 0 0 0-170.66331 170.663311v170.66331h170.66331a157.556368 157.556368 0 0 0 170.66331-170.66331 179.810864 179.810864 0 0 0-34.132662-68.265324c26.521078-4.095919 58.196189-11.946432 68.265324 0a196.877195 196.877195 0 0 1 34.132662 68.265324z"  horiz-adv-x="1024" />

    
    <glyph glyph-name="jiajian-1" unicode="&#58625;" d="M123.84 425.92h776.32c23.152-0 41.92-18.768 41.92-41.92 0-23.152-18.768-41.92-41.92-41.92h-776.32c-0 0-0 0-0 0-23.152 0-41.92 18.768-41.92 41.92 0 23.152 18.768 41.92 41.92 41.92 0 0 0 0 0 0zM470.080-4.16v776.32c0 23.152 18.768 41.92 41.92 41.92 23.152 0 41.92-18.768 41.92-41.92v-776.32c0-0 0-0 0-0 0-23.152-18.768-41.92-41.92-41.92-23.152 0-41.92 18.768-41.92 41.92 0 0 0 0 0 0z"  horiz-adv-x="1024" />

    
    <glyph glyph-name="jiajian-" unicode="&#58626;" d="M123.84 434.4h776.32c23.152-0 41.92-18.768 41.92-41.92 0-23.152-18.768-41.92-41.92-41.92h-776.32c-0 0-0 0-0 0-23.152 0-41.92 18.768-41.92 41.92 0 23.152 18.768 41.92 41.92 41.92 0 0 0 0 0 0z"  horiz-adv-x="1024" />

    
    <glyph glyph-name="wode" unicode="&#58889;" d="M1009.371 168.229l-146.286 21.943-65.829 138.971c-3.657 10.971-10.971 10.971-14.629 0l-65.829-138.971-146.286-21.943c-10.971 0-10.971-7.314-7.314-14.629l106.057-109.714-25.6-153.6c0-10.971 3.657-14.629 10.971-10.971l131.657 73.143 131.657-73.143c7.314-3.657 14.629 0 10.971 10.971l-25.6 153.6 106.057 109.714c14.629 7.314 10.971 14.629 0 14.629zM778.971 588.8c0 171.886-135.314 307.2-307.2 307.2-175.543 0-314.514-138.971-314.514-314.514 0-102.4 51.2-197.486 128-248.686-160.914-69.486-281.6-230.4-281.6-416.914 0-25.6 14.629-43.886 36.571-43.886s36.571 18.286 36.571 43.886c0 186.514 179.2 358.4 329.143 358.4h58.514c171.886 0 314.514 142.629 314.514 314.514zM468.114 347.429c-131.657 0-237.714 106.057-237.714 237.714s106.057 237.714 237.714 237.714 237.714-106.057 237.714-237.714-106.057-237.714-237.714-237.714z"  horiz-adv-x="1024" />

    
    <glyph glyph-name="yumingshezhi" unicode="&#58904;" d="M758.912 320H265.024A255.424 255.424 0 0 1 512 128a252.16 252.16 0 0 1 167.488 64H768c60.672 0 162.944 5.696 101.568-77.184A443.52 443.52 0 0 0 512-64a448 448 0 1 0 448 448c0-33.792-46.976-64-128-64h-73.088zM512 640a255.424 255.424 0 0 1-246.976-192h493.888A255.36 255.36 0 0 1 512 640z"  horiz-adv-x="1024" />

    
    <glyph glyph-name="shanchu" unicode="&#58914;" d="M908.8 725.2H660.5c-22.6 62.1-81.4 105.1-148 105.1s-125.4-43-148-105.1H116.2c-10.5 0-19.1-8.7-19.1-19.5s8.6-19.5 19.1-19.5h52.5c-6.4-3.5-10.6-10.5-10.1-18.3l39.5-675.1c1.9-31.6 27.4-57.2 56.9-57.2h515c29.9 0 54.9 25.1 56.9 57.3l39.5 675c0.4 7.9-3.7 14.9-10.1 18.3h52.4c10.6 0 19.1 8.7 19.1 19.5 0.1 10.8-8.4 19.5-19 19.5z m-396.3 66.2c45.5 0 86.2-26.5 106.4-66.2H406.2c20.1 39.7 60.8 66.2 106.3 66.2z m315.9-121.2l-39.5-675c-0.7-11.2-9.3-20.7-18.8-20.7H255c-9.5 0-18.1 9.4-18.7 20.6l-39.5 675c-0.4 7.1-4.5 13-10.3 16.1H839c-5.9-2.9-10.2-8.8-10.6-16zM348.6 97c0.5-10.4 9-18.4 19-18.4h1.1c10.5 0.6 18.6 9.8 18 20.5l-25.4 464c-0.6 10.7-9.8 19.1-20.1 18.4-10.5-0.6-18.6-9.8-18-20.5l25.4-464z m307.7-18.3h1.1c10 0 18.4 8 19 18.4l25.4 464.1c0.6 10.7-7.5 19.9-18 20.5-10.4 0.8-19.5-7.6-20.1-18.4l-25.4-464.1c-0.6-10.7 7.4-20 18-20.5z m-143.8-0.1c10.6 0 19.1 8.7 19.1 19.5V562.2c0 10.8-8.5 19.5-19.1 19.5-10.5 0-19.1-8.7-19.1-19.5v-464.1c0-10.7 8.6-19.5 19.1-19.5z"  horiz-adv-x="1024" />

    
    <glyph glyph-name="cuo" unicode="&#58887;" d="M512 854.688c-264.016 0-480-216-480-480.016s215.984-480.016 480-480.016c264 0 480 216 480 480.016S776 854.688 512 854.688m199.984-624.032c16-16 16-40 0-56-15.984-16-39.984-16-55.984 0l-144 144-144.016-144c-15.984-16-39.984-16-56 0-15.984 16-15.984 40 0 56l144 144.016-144 144.016c-15.984 16-15.984 40 0 56 16.016 16 40.016 16 56 0l144.016-144 144 144c16 16 40 16 55.984 0 16-16 16-40 0-56L568 374.672l143.984-144.016m0 0z"  horiz-adv-x="1024" />

    
    <glyph glyph-name="zuanshi" unicode="&#58628;" d="M268.8 748.8c172.8 38.4 345.6 32 512 0-115.2-32-224-19.2-339.2-19.2-57.6-6.4-115.2 6.4-172.8 19.2zM672 710.4c51.2 6.4 96 19.2 147.2 12.8 51.2-19.2 96-51.2 140.8-89.6-70.4-12.8-140.8-32-211.2-25.6-32 19.2-51.2 64-76.8 102.4zM524.8 704c38.4 0 83.2 6.4 121.6-6.4 32-25.6 51.2-64 70.4-96-140.8-6.4-275.2-6.4-409.6-6.4 32 38.4 57.6 76.8 96 102.4 38.4 12.8 83.2 6.4 121.6 6.4zM748.8 576l211.2 32-409.6-556.8zM211.2 716.8c51.2 12.8 108.8-6.4 160-12.8-32-32-57.6-70.4-89.6-108.8-76.8 12.8-147.2 19.2-217.6 32 44.8 32 96 70.4 147.2 89.6zM300.8 576h416l-211.2-582.4zM64 601.6l198.4-6.4 198.4-537.6z"  horiz-adv-x="1024" />

    
    <glyph glyph-name="anli" unicode="&#58884;" d="M808.898681-128H77.527506C37.215709-128 4.403782-95.188072 4.403782-54.876275V822.876275C4.403782 863.188072 37.215709 896 77.527506 896h549.231494L882.156332 638.459848V-54.876275c0-40.311797-32.811928-73.123725-73.257651-73.123725z m0 730.031912L590.46499 822.876275H114.089369c-20.222862 0-36.561862-16.339001-36.561863-36.561862v-804.4949c0-20.222862 16.339001-36.561862 36.561863-36.561862h658.24745c20.222862 0 36.561862 16.339001 36.561862 36.561862V602.031912zM552.965644 640.066963V896h73.123725V676.628826c0-9.642689 3.883861-19.017526 10.714099-25.847764 6.830238-6.830238 16.205075-10.714099 25.847763-10.714099h219.371175v-73.123725H626.089369c-40.311797-0.133926-73.123725 32.678002-73.123725 73.123725zM187.213094 640.066963h219.371174v-73.123725H187.213094V640.066963z m0-219.505101h512v-73.123724H187.213094V420.561862z m0-219.371174h512v-73.123725H187.213094v73.123725z"  horiz-adv-x="1198" />

    
    <glyph glyph-name="xinxi" unicode="&#58961;" d="M925.271 793.322H98.686c-54.324 0-98.36-44.036-98.36-98.36V73.04c0-54.323 44.036-98.361 98.36-98.361H925.27c54.323 0 98.36 44.038 98.36 98.36V694.963c0 54.324-44.037 98.36-98.36 98.36z m-14.908-68.22L522.02 314.247 116.098 725.102h794.265z m2.022-682.205H111.57c-23.762 0-43.025 19.264-43.025 43.026v590.22l454.575-460.095 432.29 457.429v-587.553c0-23.763-19.263-43.027-43.026-43.027z"  horiz-adv-x="1040" />

    
    <glyph glyph-name="jifen" unicode="&#58977;" d="M888.8 306.3v0zM888.7 308.6c0-0.4 0-0.8 0.1-1.3-0.1 0.4-0.1 0.8-0.1 1.3zM722.7 442.4v176.7H537.8V396.2h138.6c32.7 0 48.1 15.4 46.3 46.2zM822.4 833.1H201.6c-75.5 0-137.2-61.7-137.2-137.2V72c0-75.5 61.7-137.2 137.2-137.2h618.9c75.5 0 139.2 61.7 139.2 137.2v623.9c-0.1 75.5-61.9 137.2-137.3 137.2zM469.9 665.3h320.8v-220.2c3.6-65.2-27.2-97-92.4-95.1H469.9v315.3zM355.7 80.9h-65.2V344.6c-18.1-43.5-50.8-95.1-97.9-154.9v68C236.1 335.6 267.8 410.8 287.7 483.3h-87v46.2h89.7v92.4h-84.3v46.2h119.6c39.8 0 77 6.3 111.4 19v-51.6c-18.1-7.3-45.3-11.8-81.5-13.6v-92.4H440v-46.2h-81.5c19.9-59.8 48.9-116.9 87-171.3v-65.2c-40 45.2-69.9 86-89.8 122.2v-288.1z m62.5 0v48.9c56.1 41.7 87 100.6 92.4 176.7h70.7c-10.9-103.3-65.2-178.4-163.1-225.6z m413.2 0c-97.9 50.8-150.4 125.9-157.7 225.6h65.2c7.2-77.9 38.1-135.9 92.4-174v-51.6z"  horiz-adv-x="1024" />

    
    <glyph glyph-name="denglu" unicode="&#59145;" d="M887.16-127.653H204.677c-75.377 0-136.493 61.093-136.493 136.443V145.228h68.247V8.79c0-37.678 30.56-68.222 68.246-68.222H887.16c37.69 0 68.246 30.55 68.246 68.222V759.21c0 37.679-30.562 68.223-68.246 68.223H204.677c-37.692 0-68.246-30.544-68.246-68.222v-136.438H68.184V759.211C68.184 834.56 129.3 895.654 204.677 895.654H887.16c75.376 0 136.493-61.093 136.493-136.443v-750.42c0-75.35-61.117-136.444-136.493-136.444zM536.504 596.923c-13.297 13.323-13.297 34.94 0 48.232 13.326 13.326 34.953 13.326 48.284 0l235.435-235.339c7.096-7.098 10.129-16.523 9.664-25.814 0.465-9.295-2.568-18.72-9.664-25.854L584.788 122.81c-13.332-13.321-34.96-13.321-48.284 0-13.297 13.327-13.297 34.945 0 48.237l178.917 178.846H34.471c-18.83 0-34.124 15.254-34.124 34.11 0 18.816 15.295 34.111 34.123 34.111h680.951l-178.917 178.81z m-56.302 0"  horiz-adv-x="1024" />

    
    <glyph glyph-name="moban" unicode="&#58890;" d="M744.796587 505.998933l284.997546 121.961387-514.897066 220.45696L0 627.96032l284.98688-121.961387L0 383.9616l284.98688-121.950293-284.98688-122.059094 514.897067-220.36992 514.897066 220.36992-284.997546 122.059094 284.997546 121.950293-284.997546 122.037333zM139.450453 627.96032l375.446614 160.768427 375.424426-160.768427-375.424426-160.681387L139.450453 627.96032z m375.446614-404.680107L139.450453 383.9616l215.266987 92.203947 160.179627-68.575147 160.179626 68.575147 215.2448-92.203947-375.424426-160.681387z m375.424426-83.328l-375.424426-160.67072-375.446614 160.67072 215.266987 92.203947 160.179627-68.575147 160.179626 68.575147 215.2448-92.203947z"  horiz-adv-x="1029" />

    
    <glyph glyph-name="vip" unicode="&#58627;" d="M1127.969 575.968l-209.738 232.597h-613.3c0 0-207.963-227.318-207.963-229.078-61.691-75.783 0-116.314 0-116.314s461.75-504.055 461.75-502.942c56.382-58.819 112.779 0 112.779 0s465.284 502.942 465.284 504.717c47.584 70.474-8.813 111.020-8.813 111.020zM1087.424 496.652c0 1.76-458.23-498.761-458.23-498.761s-14.107-28.198-40.516 10.572c1.76-1.76-452.937 486.429-452.937 486.429s-21.145 28.198 0 47.584l197.39 207.963h560.438l193.871-209.722c-0.015 0 26.424-17.626-0.015-44.065zM368.382 549.53l244.417-244.974 249.035 244.974 70.339-26.754-327.645-321.043-311.448 320.817z"  horiz-adv-x="1228" />

    
    <glyph glyph-name="shoucang" unicode="&#58629;" d="M707.584 802.816c-77.312 0-148.992-38.912-196.608-102.912-47.104 64-119.296 102.912-196.608 102.912-139.264 0-252.416-123.904-252.416-275.968 0-90.624 40.448-154.624 73.216-205.824 94.72-148.992 333.312-333.824 343.552-341.504 9.728-7.68 20.992-11.264 32.256-11.264s22.528 3.584 32.256 11.264c10.24 7.68 248.32 193.024 343.552 341.504 32.768 51.2 73.216 115.2 73.216 205.824 0 152.064-113.152 275.968-252.416 275.968z"  horiz-adv-x="1024" />

    
    <glyph glyph-name="fanhui" unicode="&#58905;" d="M985.6029845333333 95.35213333333331c-11.6790784-29.3614208 24.013057066666665-86.88360853333333-27.942467199999996-97.68948373333333-52.173825066666666-10.805876266666667-32.09017706666667 51.19147306666667-43.44180373333334 77.82413653333333-66.79996053333333 155.97572373333333-276.259312 219.93777706666665-401.89126293333334 215.24431573333334-45.188208-1.7464042666666666-33.18168-32.09017706666667-37.5476896-57.52218773333333-7.2039168-42.13200106666667 26.850964266666665-101.29144213333333-19.210445866666664-123.55809599999999-54.247679999999995-26.3052128-84.80975360000001 37.7659904-121.81169173333332 65.81760746666666-90.26726613333334 68.328064-176.0593717333333 142.33194133333333-263.8161824 213.93451199999998-38.202591999999996 31.107823999999997-54.684280533333336 60.57839466666667-5.566663466666666 99.10843733333333 106.63980586666666 83.49994986666667 211.64235733333334 168.9646048 316.2083072 254.97501119999998 24.122208 19.8653472 47.69866453333333 41.913700266666666 79.1339392 26.086911999999998 27.396715733333334-13.8620832 14.516984533333334-44.75160746666666 15.062736-68.1097632 2.292155733333333-97.90778453333334 0.5457514666666667-103.14699733333332 145.82474986666665-134.6914229333333C861.7174378666666 514.0525365333334 973.4873056 330.78924800000004 985.6029845333333 95.35213333333331zM921.6409312000001 190.09456c-58.941141333333334 247.22534186666664-230.3070517333333 320.02856640000005-392.17688960000004 338.5841109333333-102.492096 11.788228266666666-104.12934933333332 6.112414933333332-112.53392000000001 111.76986773333333-3.2745077333333326 40.93134826666667-10.478425600000001 49.99082026666667-45.84310933333334 19.756197333333333C296.3190837333334 596.2426837333334 219.04069866666663 535.0093866666666 141.43486186666667 474.43099200000006c-34.164032-26.632663466666667-27.7241664-44.75160746666666 2.510456533333333-69.20126613333333 66.9091104-54.13853013333333 130.43456213333334-112.42476906666667 197.99857386666665-165.79924693333334 18.009793066666667-14.189533866666665 35.80128533333333-45.4065088 61.23329706666667-34.05488106666667 26.3052128 11.6790784 14.953586133333332 45.29735893333333 12.770580266666666 67.6731616-6.549015466666665 66.25420906666666 23.249005866666668 83.3908 83.60910080000001 75.31368 137.4201792-18.446394666666666 276.3684618666667-30.562073599999998 380.0612106666666-140.36723626666665C886.9311477333333 200.24553493333337 900.7932309333332 198.71743146666654 921.6409312000001 190.09456z"  horiz-adv-x="1024" />

    
    <glyph glyph-name="shangdian" unicode="&#58997;" d="M862.435556 51.768889c0-40.96-20.48-61.44-56.888889-61.44H209.351111c-34.133333 0-54.613333 18.204444-56.888889 52.337778-2.275556 77.368889 0 293.546667 0 368.64 27.306667 4.551111 56.888889 4.551111 81.92 15.928889 22.755556 11.377778 40.96 34.133333 63.715556 52.337777 20.48-36.408889 54.613333-63.715556 104.675555-63.715555 47.786667 0 81.92 25.031111 106.951111 68.266666 56.888889-93.297778 163.84-88.746667 211.626667-4.551111 20.48-18.204444 38.684444-40.96 61.44-52.337777 22.755556-11.377778 52.337778-11.377778 81.92-15.928889v-22.755556c-2.275556-65.991111 0-270.791111-2.275555-336.782222zM851.057778 484.124444c-59.164444-11.377778-104.675556 18.204444-131.982222 86.471112-18.204444-56.888889-52.337778-91.022222-111.502223-88.746667-52.337778 2.275556-84.195556 34.133333-102.4 86.471111-20.48-59.164444-56.888889-91.022222-116.053333-86.471111-47.786667 2.275556-77.368889 29.582222-100.124444 86.471111-4.551111-9.102222-6.826667-18.204444-9.102223-25.031111-20.48-40.96-61.44-65.991111-106.951111-63.715556-45.511111 4.551111-81.92 34.133333-93.297778 79.644445-2.275556 13.653333-2.275556 29.582222 2.275556 43.235555 18.204444 54.613333 50.062222 104.675556 68.266667 159.288889 4.551111 13.653333 13.653333 18.204444 27.306666 18.204445h650.808889c15.928889 0 22.755556-4.551111 29.582222-20.48 18.204444-50.062222 43.235556-95.573333 65.991112-141.084445 31.857778-52.337778-13.653333-125.155556-72.817778-134.257778z"  horiz-adv-x="1024" />

    
    <glyph glyph-name="icon02" unicode="&#58630;" d="M509.86675497844936-134.3541433685332c-285.50878597878517 0-516.9598013743407 231.49765760948148-516.9598013743407 517.0432654348641S224.3579689996643 899.7152038001777 509.86675497844936 899.7152038001777c285.5112404233481 0 516.9622558189036-231.4804739084642 516.9622558189036-517.0260817338469S795.3779954017974-134.3541433685332 509.86675497844936-134.3541433685332zM509.86675497844936 835.0893975425581c-249.82294849611847 0-452.3389053003852-202.54541402263706-452.3389053003852-452.40027547622714S260.04380518779266-69.71360914899753 509.86675497844936-69.71360914899753s452.3389053003852 202.54786846719998 452.3389053003852 452.4027312153284S759.689703474568 835.0893975425581 509.86675497844936 835.0893975425581zM703.7269861666764 350.36885495656304L542.1796574599902 350.36885495656304l0-161.57187833046913c0-17.836781335387652-14.466302073362964-32.30799359241482-32.310448036977775-32.30799359241482-17.844145963614814 0-32.30799359241482 14.47121225702716-32.30799359241482 32.30799359241482l0 161.57187833046913-161.55223889035062 0c-17.844145963614814 0-32.310448036977775 14.468756517925923-32.310448036977775 32.3202671097679 0 17.839235779950616 14.468756517925923 32.30799359241482 32.310448036977775 32.30799359241482l161.55223889035062 0 0 161.57924295869628c0 17.836781335387652 14.466302073362964 32.30062896418766 32.30799359241482 32.30062896418766 17.84660040817778 0 32.310448036977775-14.461391889698765 32.310448036977775-32.30062896418766l0-161.57924295869628 161.54733000122468 0c17.84660040817778 0 32.310448036977775-14.468756517925923 32.310448036977775-32.30799359241482C736.0374342036542 364.8376114744889 721.5735865748544 350.36885495656304 703.7269861666764 350.36885495656304z"  horiz-adv-x="1024" />

    
    <glyph glyph-name="yanzhengma" unicode="&#58906;" d="M522.24 378.88c-66.56 0-117.76 56.32-117.76 117.76S460.8 614.4 522.24 614.4c66.56 0 117.76-51.2 117.76-117.76s-51.2-117.76-117.76-117.76z m0 179.2c-30.72 0-56.32-25.6-56.32-56.32s25.6-56.32 56.32-56.32 56.32 25.6 56.32 56.32-25.6 56.32-56.32 56.32zM517.12-87.04c-5.12 0-10.24 0-15.36 5.12-15.36 10.24-409.6 209.92-409.6 471.04 0 117.76 20.48 450.56 20.48 460.8 0 10.24 10.24 25.6 20.48 25.6 10.24 5.12 25.6 0 35.84-10.24C240.64 793.6 399.36 793.6 517.12 793.6s276.48 0 343.04 71.68c10.24 10.24 20.48 10.24 35.84 10.24 10.24-5.12 20.48-15.36 20.48-25.6 0-15.36 20.48-343.04 20.48-460.8 0-261.12-389.12-460.8-409.6-471.04 0-5.12-5.12-5.12-10.24-5.12z m-343.04 870.4C168.96 680.96 153.6 471.04 153.6 384c0-194.56 291.84-368.64 358.4-404.48 66.56 35.84 358.4 209.92 358.4 404.48 0 87.04-10.24 296.96-20.48 399.36C752.64 727.04 614.4 727.04 512 727.04s-240.64 0-337.92 56.32zM527.36 148.48c-15.36 0-30.72 15.36-30.72 30.72v194.56c0 15.36 15.36 30.72 30.72 30.72s30.72-15.36 30.72-30.72V179.2c0-15.36-15.36-30.72-30.72-30.72zM527.36 245.76H430.08c-15.36 0-30.72 15.36-30.72 30.72s15.36 30.72 30.72 30.72h97.28c15.36 0 30.72-15.36 30.72-30.72s-15.36-30.72-30.72-30.72z"  horiz-adv-x="1024" />

    
    <glyph glyph-name="shouye" unicode="&#58891;" d="M1035.85109333 390.62414186L512 880.3965152-11.70545813 392.08049813c-10.19448853-9.61194667-10.77703147-25.63185813-1.31072-35.82634667 9.61194667-10.19448853 25.63185813-10.77703147 35.82634666-1.1650848L512 810.9283551999999l489.0441952-457.29564374c4.95160853-4.51470187 11.06830187-6.84487147 17.33063147-6.84487146 6.6992352 0 13.54410667 2.62144 18.4957152 8.0099552 9.75758187 10.19448853 9.17504 26.3600352-1.01944854 35.82634666z m0 0M875.94325333 380.57528852999997c-13.98101333 0-25.34058667-11.35957333-25.34058666-25.34058667v-388.99256853H647.44106667V236.83299520000003H376.55893333v-270.59086187H173.54296853V355.23470186c0 13.98101333-11.35957333 25.34058667-25.34058666 25.34058667-13.98101333 0-25.34058667-11.35957333-25.34058667-25.34058667v-439.67374186H427.53137813V186.15182186000004h169.2285152v-270.59086186h304.66958187V355.23470186c0 13.98101333-11.50520853 25.34058667-25.48622187 25.34058667z m0 0M698.2678752 744.22727146h152.33479147v-135.29543146c0-13.98101333 11.35957333-25.34058667 25.34058666-25.34058667 13.98101333 0 25.34058667 11.35957333 25.34058667 25.34058667V794.9084448H698.2678752c-13.98101333 0-25.34058667-11.35957333-25.34058667-25.34058667-0.1456352-13.98101333 11.35957333-25.34058667 25.34058667-25.34058667z m0 0"  horiz-adv-x="1024" />

    
    <glyph glyph-name="gouwuche" unicode="&#59278;" d="M512 848C256 848 48 640 48 384s208-464 464-464 464 208 464 464S768 848 512 848z m0-896C273.6-48 80 145.6 80 384S273.6 816 512 816s432-193.6 432-432-193.6-432-432-432zM398.4 198.4c-27.2 0-48-20.8-48-48s20.8-48 48-48 48 20.8 48 48-22.4 48-48 48z m0-64c-9.6 0-16 8-16 16s8 16 16 16 16-8 16-16-8-16-16-16zM675.2 198.4c-27.2 0-48-20.8-48-48s20.8-48 48-48 48 20.8 48 48-20.8 48-48 48z m0-64c-9.6 0-16 8-16 16s8 16 16 16c9.6 0 16-8 16-16s-6.4-16-16-16zM724.8 536H339.2l-12.8 60.8c-1.6 8-8 12.8-16 12.8h-94.4c-9.6 0-16-6.4-16-16s6.4-16 16-16h81.6l70.4-352c1.6-8 8-12.8 16-12.8h299.2c9.6 0 16 6.4 16 16s-6.4 16-16 16H396.8l-8 36.8 307.2 62.4c6.4 1.6 11.2 6.4 12.8 12.8l32 160c1.6 4.8 0 9.6-3.2 12.8s-8 6.4-12.8 6.4z m-44.8-163.2L384 313.6l-38.4 190.4h360l-25.6-131.2zM436.8 416h166.4c9.6 0 16 6.4 16 16s-6.4 16-16 16H436.8c-9.6 0-16-6.4-16-16s8-16 16-16z"  horiz-adv-x="1024" />

    
    <glyph glyph-name="youxiang" unicode="&#59220;" d="M1118.413 103.834c-0.205-23.552-6.451-46.592-18.125-67.072L747.213 431.718l349.593 304.026a138.691 138.691 0 0 0 21.812-74.138v-557.67h-0.205zM559.309 359.936l485.888 425.472c-20.48 11.469-43.623 17.408-67.072 17.408H139.264c-23.45 0-46.592-6.042-67.072-17.408l487.117-425.472z m134.246 25.805L581.12 287.13c-12.902-12.186-33.075-12.186-45.978 0l-112.435 98.61L67.072-14.54c22.118-14.03 47.718-21.505 73.83-21.505h838.861c26.112 0 51.712 7.475 73.83 21.504L694.887 385.741h-1.33zM21.811 735.744C7.885 713.933 0.41 688.742 0 662.938v-559.002c0.205-23.552 6.451-46.694 18.125-67.072l352.973 394.957L21.81 735.744z m0 0z"  horiz-adv-x="1118" />

    
    <glyph glyph-name="personal" unicode="&#58632;" d="M885.186468-15.217330999999945c-0.023536-4.670369 0.652869-9.375531-0.092098-14.012132-1.842974-11.471262-11.128455-18.651802-22.709211-17.763572-10.431583 0.800225-18.505469 9.898441-18.556635 21.24486-0.071631 15.753799-1.085728 31.43699-3.339048 47.019897-5.699816 39.411615-17.98256 76.656891-37.120432 111.604844-15.196097 27.751041-34.06177 52.755528-56.31254 75.240635-10.993378 11.110035-7.573489 28.960589 6.615675 34.400484 8.441253 3.236718 16.123212 1.474584 22.49227-4.898567 26.768667-26.786063 49.0266-56.915267 66.648956-90.447988 18.11252-34.465976 30.40959-70.919213 37.063127-109.262496C882.924961 20.340512999999987 884.728026 2.625036000000023 885.186468-15.217330999999945zM756.766656 599.488843c-10.868535 58.34278-38.794561 107.367333-84.448344 145.256268C606.984305 798.969083 532.036335 816.434873 449.831079 795.763065c-128.32976-32.272008-208.455659-160.6427-182.065616-290.112424 13.736862-67.3929 50.060139-120.176057 106.931405-158.823262 8.547677-5.809309 17.572214-10.816347 27.218922-15.745612-1.101077-0.393973-1.747807-0.648776-2.408863-0.858554C289.836131 295.573041 201.587228 211.61997799999995 161.560606 103.90574400000003c-13.973246-37.60241-21.438265-76.482929-23.010063-116.522854-0.226151-5.762237-0.814552-11.602246 0.13303-17.296945 1.828648-10.992355 11.409864-17.999956 22.687722-17.075911 10.256598 0.841158 18.281365 9.830903 18.381649 20.744463 0.24457 26.464745 3.148713 52.591799 9.353019 78.355579 26.823925 111.3746 111.435998 202.75789 220.199121 237.646492 33.006741 10.588149 66.792219 16.205077 101.530394 15.830547 26.473955-0.286526 52.296063 3.851725 77.491908 11.969613C706.844663 355.74344599999995 779.549545 477.184309 756.766656 599.488843zM516.334725 347.120045c-120.659057-2.290159-212.515115 95.688339-211.954343 207.742415 0.176009 114.858958 93.294826 207.632921 208.166063 207.395514 114.284883-0.236384 206.990285-93.558839 206.745714-208.230532C719.052706 441.366545 628.488061 349.248522 516.334725 347.120045z"  horiz-adv-x="1024" />

    
    <glyph glyph-name="erweima" unicode="&#58938;" d="M64 448h384V832H64v-384z m64 320h256v-256H128V768zM576 832v-384h384V832H576z m320-320h-256V768h256v-256zM64-64h384V320H64v-384z m64 320h256v-256H128v256zM192 704h128v-128H192zM704 704h128v-128h-128zM192 192h128v-128H192zM768 320H576v-256h64v192h128zM576 0h64v-64H576zM896 320h64v-64h-64zM896 0h-128v-64h192v256h-64zM832 64v64h-64v64h-64v-128h64z"  horiz-adv-x="1024" />

    
    <glyph glyph-name="gouwuche1" unicode="&#59340;" d="M868.05172 185.270554l153.262747 404.453769c2.49817 6.620151 1.623811 13.989754-2.49817 19.735545-3.997072 5.745792-10.492315 9.24323-17.487192 9.24323H340.313247c-11.7414 0-21.359356-9.493047-21.359356-21.234447 0-11.866309 9.617956-21.359356 21.359356-21.359356h630.038546L833.327153 214.124421h-385.967309L302.091242 800.444987c-0.124909 0.374726-0.124909 0.624543-0.124909 0.999268-9.742864 32.601122-21.484264 53.710661-37.84728 68.574774C244.883142 887.131495 219.151988 895.375457 185.051964 895.375457H43.155892c-0.749451 0-1.623811 0-2.373262-0.124908C18.424006 894.126372 0.562088 875.515004 0.562088 852.781654c0-23.607709 19.111003-42.593803 42.593804-42.593803s42.593803 19.111003 42.593803 42.593803h99.302269c30.727495 0 43.593071-8.243962 50.587948-14.489388 10.242498-9.118322 18.111735-24.107343 25.23152-48.464503l170.125396-686.747012c0-0.124909 0.124909-0.249817 0.124909-0.374725 9.118322-34.100024 18.986094-71.697487 57.2081-90.183947C476.338619-2.092218 468.969017-20.828495 468.969017-41.4384c0-46.965601 38.222005-85.187607 85.187607-85.187606s85.187607 38.222005 85.187606 85.187606c0 15.488656-4.121981 29.978043-11.366674 42.593804h129.155403c-7.369602-12.61576-11.491583-27.105148-11.491583-42.593804 0-46.965601 38.346914-85.187607 85.312515-85.187606 46.840693 0 85.062698 38.222005 85.062698 85.187606 0 47.09051-38.222005 85.187607-85.062698 85.187607H547.911198c-57.2081 0-63.453525 23.357892-75.69456 69.698951L457.852159 171.530617h390.214199c8.993413 0 16.862649 5.371066 19.985362 13.739937z m5.371066-226.708954c0-23.482801-19.111003-42.468895-42.468895-42.468894-23.482801 0-42.593803 18.986094-42.593803 42.468894s19.111003 42.468895 42.593803 42.468895c23.482801 0.124909 42.468895-18.861186 42.468895-42.468895z m-319.391071 42.593804c23.482801 0 42.468895-18.986094 42.468895-42.468895s-18.986094-42.468895-42.468895-42.468895-42.593803 18.986094-42.593803 42.468895c0.124909 23.482801 19.235911 42.468895 42.593803 42.468895z m0 0"  horiz-adv-x="1024" />

    
    <glyph glyph-name="qiye" unicode="&#58897;" d="M512 896c-89.6 0-179.2-25.6-256-68.265-21.335-12.8-25.6-38.4-17.065-59.735 12.8-21.335 38.4-25.6 59.735-12.8C362.665 789.335 435.2 810.665 512 810.665c234.665 0 426.665-192 426.665-426.665S746.665-42.665 512-42.665 85.335 149.335 85.335 384c0 76.8 21.335 149.335 55.465 213.335 12.8 21.335 4.265 46.935-12.8 59.735s-46.935 4.265-59.735-17.065C25.6 563.2 0 473.6 0 384c0-281.6 230.4-512 512-512s512 230.4 512 512S793.6 896 512 896zM771.077 131.87H248.074v66.858h89.278v216.78h69.37c10.497 0 15.688-1.71 15.688-5.135 0-3.481-0.967-7.644-3.026-12.493-3.993-10.04-5.99-25.671-5.99-46.663v-152.484h77.184V479.288h70.625c11.239 0 16.773-1.766 16.773-5.417 0-3.65-0.798-7.531-2.34-11.581-3.993-10.153-5.99-25.958-5.99-47.406v-46.152h154.998v-64.86H569.646v-105.14h201.431v-66.861zM749.455 397.88C645.632 446.085 567.65 509.066 515.333 586.82c-50.309-72.105-130.519-135.43-240.732-190.137-22.134 27.955-40.96 48.374-56.648 61.328 133.09 46.607 220.77 124.933 262.984 235.09 55.506-14.203 84.884-22.078 88.136-23.732 3.25-1.597 4.792-3.824 4.792-6.676 0-3.65-2.11-6.902-6.615-9.697-4.45-2.852-7.931-5.479-10.27-7.931 24.473-40.049 58.413-74.962 102-104.796 43.469-29.722 92.36-51.288 147.067-64.635-16.942-19.052-35.769-44.949-56.592-77.753z"  horiz-adv-x="1024" />

    
    <glyph glyph-name="jiaruwomen" unicode="&#59333;" d="M955.962336 95.878758l-89.846987-0.320585-0.334227 90.063893c0 24.421748-18.730343 44.217525-43.576355 44.217524-24.844647 0-44.988292-19.795776-44.988292-44.217524l-0.140512-90.388571-91.007913-0.321949c-24.851468 0-44.992385-18.420672-44.992385-42.839691 0-24.428569 20.142281-44.220253 44.992385-44.220253l90.874222-0.139148-0.140511-91.509936c0-24.414927 20.138188-44.218889 44.988292-44.218888 24.846012 0 44.988292 19.803961 44.988293 44.218888l-0.339684 91.374881 89.523674-0.132326c24.846012 0 44.993749 19.795776 44.993749 44.21616 0.001364 24.416291-20.147738 44.217525-44.993749 44.217525z m-215.289811 119.560432c27.364308 30.74341 1.875763 53.373975-22.646936 70.483659-24.454489 17.061937-51.016653 31.304092-78.880255 43.085246 82.968736 55.875901 137.4136 149.685863 137.413601 256C776.558935 756.279553 635.291495 895.126918 461.035187 895.126918c-174.261765 0-315.529205-138.846001-315.529205-310.118823 0-106.353699 54.481698-200.18958 137.500908-256.061389C141.025978 268.839084 36.774498 139.049948 14.798745-16.604251a43.384004 43.384004 0 0 1-2.52239-14.598209l0.339684-3.436397-0.010914-0.135055h0.028648l0.055932-0.54022c0-24.413563 20.143645-44.217525 44.988293-44.217524s44.993749 19.798505 44.993749 44.217524l-0.055932 0.54022h0.807601c20.963524 168.862297 162.854399 301.008755 337.970148 310.274341 6.499006-0.390159 13.041666-0.611158 19.640258-0.611158 6.609506 0 13.164444 0.220999 19.672999 0.616615 68.751136-3.630112 132.370186-26.217024 185.569545-62.514055 7.279323-4.741928 45.407099-30.122703 74.396159 2.447359zM460.950607 363.4089c-124.47152 0-225.373911 99.180782-225.373911 221.514615S336.479087 806.432672 460.950607 806.432672c124.472884 0 225.371183-99.173961 225.371182-221.509157s-100.899663-221.514614-225.371182-221.514615z m0 0"  horiz-adv-x="1024" />

    
    <glyph glyph-name="chanpinguanli" unicode="&#58883;" d="M801.492-79h-580.04c-58.221 0-105.427 47.204-105.427 105.424v553.47c0 58.222 47.206 105.428 105.427 105.428h52.708c0 58.22 79.893 160.254 237.312 160.254 169.803 0 237.31-102.034 237.31-160.254h53.768c58.219 0 105.424-47.205 105.424-105.428v-553.47c0-58.22-48.263-105.425-106.482-105.425z m-290.02 871.863c-145.23 0-184.599-71.15-184.599-107.542H696.07c0 36.392-47.316 107.542-184.598 107.542zM855.26 579.896c0 29.111-23.601 52.714-52.71 52.714h-53.77v-158.137h-52.713V632.61H326.87v-158.137h-52.716V632.61H221.45c-29.113 0-52.714-23.603-52.714-52.714v-448.05H855.26v448.05z m0-500.761H168.736v-52.709c0-29.114 23.603-52.716 52.716-52.716H802.55c29.111 0 52.712 23.603 52.712 52.716v52.709h-0.002z"  horiz-adv-x="1024" />

    
    <glyph glyph-name="bianji" unicode="&#58894;" d="M358.166 341.375c-0.533-0.68-1.066-1.391-1.304-2.251l-41.104-150.7c-2.4-8.773 0.06-18.226 6.55-24.893 4.86-4.742 11.262-7.35 18.078-7.35 2.252 0 4.505 0.266 6.727 0.86l149.631 40.808c0.238 0 0.357-0.207 0.534-0.207 1.718 0 3.409 0.622 4.684 1.928l400.114 400.054c11.883 11.898 18.404 28.11 18.404 45.743 0 19.989-8.476 39.963-23.324 54.767l-37.787 37.845c-14.816 14.848-34.822 23.339-54.797 23.339-17.632 0-33.843-6.521-45.758-18.39l-400.056-400.16c-0.413-0.384-0.295-0.948-0.592-1.393m504.759 297.427l-39.742-39.713-64.429 65.451 39.18 39.18c6.194 6.222 18.195 5.318 25.31-1.823l37.812-37.846c3.944-3.941 6.195-9.186 6.195-14.372-0.027-4.254-1.54-8.107-4.326-10.877m-433.603-303.71l288.713 288.729 64.46-65.496-288.18-288.164-64.993 64.931zM376.718 218.03l20.864 76.58 55.656-55.658-76.52-20.922zM888.265 480.264c-15.145 0-27.563-12.313-27.62-27.665v-372.982c0-19.56-15.886-35.445-35.476-35.445H194.221c-19.56 0-35.505 15.884-35.505 35.445v608.78c0 19.577 15.945 35.476 35.505 35.476h406.367c15.232 0 27.593 12.372 27.593 27.606 0 15.203-12.361 27.59-27.593 27.59H190.013c-47.684 0-86.493-38.778-86.493-86.492v-617.17c0-47.713 38.81-86.477 86.493-86.477h639.334c47.716 0 86.51 38.764 86.51 86.478v377.37c-0.063 15.173-12.448 27.486-27.592 27.486"  horiz-adv-x="1024" />

    
    <glyph glyph-name="shangwutubiao-" unicode="&#58949;" d="M960 592V816H704v-80H448v-320h-128v80H64v-224h256v80h128v-320h256v-80h256V176H704v-80H512V352h192v-80h256V496H704v-80H512V672h192v-80zM256 336H128v96h128z m512-224h128v-96h-128z m0 320h128v-96h-128z m0 320h128v-96h-128z"  horiz-adv-x="1024" />

    
    <glyph glyph-name="shangcheng1" unicode="&#59362;" d="M139.811499-127.971328c-45.794645 0-83.050496 40.722432-83.050496 90.778283v336.049493c0 16.347136 13.301077 29.650944 29.650944 29.650944 16.348501 0 29.649579-13.303808 29.649578-29.650944V-37.19168c0-17.058475 10.881707-31.472299 23.760896-31.472299h744.36335c12.886016 0 23.770453 14.413824 23.770453 31.472299V298.856448a29.432491 29.432491 0 0 0 8.676693 20.970155c5.597867 5.597867 13.037568 8.679424 20.949675 8.679424 7.845205 0 15.48288-3.162112 20.994731-8.679424 5.525504-5.522773 8.687616-13.16864 8.676693-20.970155V-37.19168c0-50.055851-37.261312-90.778283-83.069611-90.778283H139.811499z m698.481322 510.675627c-38.901077 0-119.525376-0.002731-160.303786 49.116501-47.397547-49.119232-130.392064-49.116501-165.978112-49.116501s-118.584661-0.002731-165.979478 49.116501c-40.781141-49.119232-121.40544-49.116501-160.305152-49.116501C83.337216 382.704299 0.02048 466.011477 0 568.411477v70.926336c0 0.357717 0.090112 0.649899 0.148821 0.843776 0.015019 0.045056 0.031403 0.088747 0.039595 0.136534a29.130752 29.130752 0 0 0 2.035712 10.092544c0.187051 0.458752 0.419157 0.835584 0.623957 1.16736a7.33184 7.33184 0 0 1 0.361814 0.630784 29.072043 29.072043 0 0 0 2.718378 4.871509L176.188075 884.105216c5.558272 7.430144 14.41792 11.866112 23.69809 11.866112h624.231766c9.285632 0 18.146645-4.437333 23.706282-11.867477l170.199723-226.992128a28.890453 28.890453 0 0 0 2.68288-4.838742c0.103765-0.173397 0.212992-0.339968 0.316757-0.503808 0.253952-0.390485 0.540672-0.832853 0.752299-1.366698a29.149867 29.149867 0 0 0 2.028885-10.087083 2.893141 2.893141 0 0 0 0.193878-0.977579v-70.926336c0.001365-102.4-83.308544-185.707179-185.705814-185.707178zM682.240683 555.49952c5.197824 0 10.326016-1.373525 14.828885-3.971755a29.738325 29.738325 0 0 0 14.820693-25.679189v-14.188544c0-45.170688 20.144128-69.649749 126.40256-69.649749 69.612885 0.075093 126.317909 56.774656 126.39983 126.393002v41.28495H59.304619v-41.275392c0.075093-69.622443 56.780117-126.326101 126.403925-126.40256 106.255701 0 126.399829 24.479061 126.399829 69.649749v14.188544c0 16.349867 13.301077 29.650944 29.649579 29.650944 16.351232 0 29.652309-13.301077 29.652309-29.650944 0-50.322091 23.908352-83.838293 140.589739-83.838293 116.682752 0 140.589739 33.516203 140.589739 83.838293 0 10.556757 5.682517 20.396715 14.823424 25.679189a29.711019 29.711019 0 0 0 14.82752 3.971755z m252.813312 113.47968L809.290411 836.666709h-594.561707L88.966485 668.9792h846.08751z"  horiz-adv-x="1024" />

    
    <glyph glyph-name="shangcheng2" unicode="&#58645;" d="M920.525263 586.3267410000001l-100.987843 0c-16.134285 56.609402-40.420169 108.690702-72.050734 153.332689-30.621155 43.216398-66.533574 77.299261-106.741075 101.302266C598.040022 866.455414 552.491398 879.381361 505.367604 879.381361c-47.124811 0-92.672418-12.925947-135.378006-38.419664-40.208518-24.003005-76.120937-58.085868-106.741075-101.302266-31.630565-44.641987-55.915432-96.723288-72.050734-153.332689l-93.525126 0c-50.044164 0-90.758405-40.714241-90.758405-90.758405l0-531.674344c0-50.045182 40.714241-90.758405 90.758405-90.758405l822.853618 0c50.045182 0 90.758405 40.714241 90.758405 90.758405L1011.284686 495.568336C1011.283668 545.6125 970.570445 586.3267410000001 920.525263 586.3267410000001zM317.215345 701.421908c51.090206 72.107717 117.91073 111.818653 188.152259 111.818653 70.240512 0 137.061035-39.710936 188.151241-111.818653 23.710968-33.46521 42.780887-72.143332 56.804771-115.095167L260.411591 586.3267410000001C274.435476 629.2785759999999 293.504377 667.956698 317.215345 701.421908zM945.142868-36.106007999999974c0-13.574127-11.044496-24.617606-24.617606-24.617606L97.671645-60.723614c-13.574127 0-24.617606 11.044496-24.617606 24.617606L73.054039 495.568336c0 13.574127 11.043478 24.617606 24.617606 24.617606l78.747236 0c-5.51716-33.512017-8.370373-68.10569-8.370373-103.281402 0-11.903309 0.336809-23.875811 0.998217-35.784208l-4.559645 0c-18.468546 0-33.579175-15.110629-33.579175-33.579175l0-2.882721c0-18.468546 15.110629-33.579175 33.579175-33.579175l72.054805 0c18.468546 0 33.579175 15.110629 33.579175 33.579175l0 2.882721c0 18.468546-15.110629 33.579175-33.579175 33.579175l-1.239377 0c-0.735689 11.891098-1.114218 23.874794-1.114218 35.784208 0 35.270345 3.162548 69.824333 9.394029 103.281402l523.5665 0c6.231481-33.457069 9.394029-68.011058 9.394029-103.281402 0-12.214679-0.39481-24.512798-1.169166-36.710179-14.746346-3.535989-25.795929-16.861834-25.795929-32.652186l0-2.882721c0-18.468546 15.110629-33.579175 33.579175-33.579175l72.054805 0c18.468546 0 33.579175 15.110629 33.579175 33.579175l0 2.882721c0 18.468546-15.110629 33.579175-33.579175 33.579175l-13.526302 0c0.66039 11.910432 0.998217 23.882934 0.998217 35.784208 0 35.175712-2.852195 69.769386-8.370373 103.281402l86.209953 0c13.574127 0 24.617606-11.043478 24.617606-24.617606L945.140833-36.106007999999974z"  horiz-adv-x="1027" />

    
    <glyph glyph-name="dingwei" unicode="&#58928;" d="M518.65 34.244S835.157 305.538 835.157 587.47C832.498 757.694 691.532 896 518.65 896S202.14 757.694 202.14 587.47c0-292.571 316.51-553.226 316.51-553.226zM345.765 579.491c0 95.75 77.133 172.883 172.883 172.883s172.883-77.132 172.883-172.883S614.4 406.608 518.65 406.608 345.766 486.4 345.766 579.49zM768.665 201.808c-21.278-26.598-39.896-53.195-61.174-74.473 220.758-13.299 268.634-58.514 279.273-82.452-10.64-26.597-159.585-90.431-454.816-90.431-295.231-2.66-444.177 63.834-452.156 87.771 7.98 21.278 42.556 63.834 244.696 79.793-18.618 21.278-39.896 47.875-61.174 74.472C98.41 177.87 0 137.974 0 44.883c0-135.647 335.127-170.223 534.608-170.223 199.48 0 534.608 37.236 534.608 170.223 0 98.41-122.348 140.966-300.551 156.925z"  horiz-adv-x="1069" />

    
    <glyph glyph-name="xiangyou1" unicode="&#59304;" d="M295.936 820.224l488.96-402.944c9.216-9.216 13.824-19.968 13.824-32.256s-4.608-22.528-13.824-32.256l-488.96-404.992c-15.36-11.264-30.72-13.312-46.08-6.656-15.36 7.168-23.552 19.968-25.088 38.4V787.968c1.536 18.432 9.728 31.744 25.088 38.4 15.36 7.168 30.72 5.12 46.08-6.144z"  horiz-adv-x="1024" />

    
    <glyph glyph-name="shangpu" unicode="&#58893;" d="M1041.385 881.396L1031.997 895.305H230.183l-9.388-11.822C16.342 626.874 44.507 470.405 79.625 400.168c35.119-70.584 106.399-116.134 181.156-116.134h6.954c94.577 3.825 157.512 50.07 190.892 83.45 29.903-33.38 86.231-78.234 174.55-78.234 92.142 0 149.514 48.679 178.026 82.754 39.986-32.337 118.568-84.84 200.627-84.84 53.895 0 99.792 21.557 137.693 64.673 139.083 158.903-97.706 514.26-108.138 529.56M261.13 345.23c-42.073 0-97.01 25.382-124.827 81.71-28.165 56.33-48.68 183.59 124.479 406.472h737.14c65.37-101.879 189.502-343.536 102.922-442.285-25.382-29.207-54.59-43.116-89.36-43.116-79.278 0-161.337 70.585-179.766 87.275V648.432h-62.935v-229.835c-17.037-22.949-60.5-68.15-135.953-68.15-85.189 0-129.348 57.371-141.518 75.452V648.432h-62.935V427.29c-15.299-19.82-68.498-78.235-163.423-82.06h-3.824m733.316-368.918c-12.17-28.512-29.903-38.595-36.857-41.725H308.417c-49.722 0-62.24 61.545-62.935 61.545v200.28h-62.935l0.347-205.496c6.955-41.03 42.073-118.22 125.175-118.22l662.036 1.043c5.911 1.738 58.763 16.342 84.841 86.231l1.739 241.657h-62.24v-225.315m0 0z"  horiz-adv-x="1248" />

    
    <glyph glyph-name="shoujiyanzhengma" unicode="&#58901;" d="M800 896H256C185.6 896 128 838.4 128 768v-768c0-70.4 57.6-128 128-128h544c70.4 0 128 57.6 128 128V768c0 70.4-57.6 128-128 128z m64-691.2V0c0-38.4-25.6-64-64-64H256c-38.4 0-64 25.6-64 64V768c0 38.4 25.6 64 64 64h544c38.4 0 64-25.6 64-64v-563.2zM697.6 716.8H358.4c-12.8 0-25.6-12.8-25.6-32 0-12.8 12.8-32 25.6-32h339.2c12.8 0 25.6 12.8 25.6 32s-12.8 32-25.6 32zM531.2 192c-19.2 0-38.4-6.4-51.2-19.2-12.8-12.8-19.2-32-19.2-51.2 0-19.2 6.4-38.4 19.2-51.2 12.8-12.8 32-19.2 51.2-19.2s38.4 6.4 51.2 19.2c12.8 12.8 19.2 32 19.2 51.2 0 19.2-6.4 38.4-19.2 51.2-19.2 12.8-38.4 19.2-51.2 19.2z m-38.4 185.6L384 492.8l-38.4-38.4 147.2-153.6 217.6 217.6-38.4 38.4-179.2-179.2z"  horiz-adv-x="1024" />

    
    <glyph glyph-name="ziyuan" unicode="&#58900;" d="M695.73390031 140.87853561999998l-219.73077-184.40845781C381.14086812-123.15279281000005 239.14281219-110.74863656000002 159.51994156-15.886374380000007s-67.21871438 236.97845344 27.64354875 316.601325c22.44561656 18.90157125 55.99590562 15.94820062 74.89747688-6.49741593s15.94820062-55.99590562-6.497415-74.89747688C205.59252219 177.26406094000004 198.97697188 102.48471844000005 240.91483437 52.51368844000001c41.93786156-49.97103 116.717205-56.58658031 166.68823407-14.53058344l219.84890437 184.40845781C677.42300281 264.32942531000003 683.92041781 339.10876781 641.98255625 389.07979781s-116.717205 56.58658031-166.68823406 14.5305825c-22.44561656-18.90157125-55.99590562-15.94820062-74.89747781 6.497415s-15.94820062 55.99590562 6.497415 74.89747782c94.86226219 79.62287062 236.86031906 67.21871438 316.48318968-27.64354876s67.33684875-236.86031906-27.64354875-316.48318875zM818.00344156 467.28504937c-22.44561656-18.90157125-55.99590562-15.94820062-74.89747687 6.49741594s-15.94820062 55.99590562 6.497415 74.89747688c49.97103 41.93786156 56.58658031 116.717205 14.53058343 166.688235-41.93786156 49.97103-116.717205 56.468445-166.688235 14.5305825l-219.73077-184.2903225C327.74392813 503.67057469 321.24651313 428.89123219 363.18437562 378.92020219000005s116.717205-56.58658031 166.68823407-14.5305825c22.44561656 18.90157125 55.99590562 15.94820062 74.89747781-6.497415s15.94820062-55.99590562-6.49741594-74.89747782c-94.9803975-79.741005-236.97845344-67.33684875-316.60132406 27.64354876-79.62287062 94.86226219-67.21871438 236.86031906 27.64354875 316.48318875L529.16380063 811.52992219C624.02606281 891.15279281 766.02411969 878.74863656 845.64699031 783.88637438c79.62287062-94.9803975 67.21871438-236.97845344-27.64354875-316.601325z"  horiz-adv-x="1024" />

    
    <glyph glyph-name="gonggao" unicode="&#59288;" d="M105.848832 548.28032h97.366016v-220.140544h-97.366016V548.28032z m153.971712 29.331456s338.880512 12.387328 516.601856 224.062464c0 0 152.045568 36.323328 140.432384-362.30656 0 0 16.173056-274.507776-139.022336-313.142272 0 0-116.486144 151.081984-517.946368 169.440256l-0.065536 281.946112z m63.09376-348.50816s14.24384-129.262592 119.053312-264.558592c0 0 91.077632-4.03968 104.808448 33.57184 0 0 9.696256 24.900608-19.31776 56.992768-9.304064 14.758912-91.84256 84.463616-105.32352 173.993984h-99.22048z m0 0"  horiz-adv-x="1024" />

    
    <glyph glyph-name="youxiang1" unicode="&#59029;" d="M872.558 735.939H152.42c-66.384 0-120.022-53.627-120.022-119.879v-464.275c0-66.25 53.638-119.882 120.022-119.882h720.137c66.136 0 120.022 53.632 120.022 119.882V616.06c0 66.252-53.886 119.879-120.022 119.879z m56.008-584.154c0-30.808-25.13-55.875-56.007-55.875H152.422c-30.882 0-56.008 25.066-56.008 55.875V616.06c0 30.75 25.127 55.878 56.008 55.878h720.137c30.878 0 56.007-25.127 56.007-55.878v-464.275zM833.235 519.802L512.49 313.044 191.618 519.802c-14.881 9.501-34.633 5.256-44.258-9.562-9.505-14.874-5.257-34.686 9.625-44.25l338.19-217.887c5.249-3.434 11.315-5.062 17.315-5.062 6.003 0 12.063 1.628 17.316 5.062L867.865 465.99c14.881 9.564 19.196 29.376 9.571 44.25-9.572 14.877-29.51 19.063-44.2 9.562z"  horiz-adv-x="1025" />

    
    <glyph glyph-name="lingxingdian" unicode="&#58948;" d="M317.83936 384.47104l194.41664 194.41152 194.4064-194.41152-194.4064-194.41152z"  horiz-adv-x="1024" />

    
    <glyph glyph-name="tuanduiguanli" unicode="&#58974;" d="M1017.6 104.533333c-6.4 21.333333-14.933333 40.533333-29.866667 55.466667l42.666667 21.333333-38.4 40.533334-42.666667-27.733334c-17.066667 10.666667-38.4 17.066667-59.733333 19.2l14.933333 44.8h-55.466666l-10.666667-49.066666c-21.333333-6.4-40.533333-17.066667-55.466667-29.866667l-21.333333 42.666667-38.4-40.533334 27.733333-42.666666c-10.666667-17.066667-17.066667-38.4-19.2-59.733334l-44.8 14.933334v-55.466667l49.066667-10.666667c6.4-21.333333 14.933333-40.533333 29.866667-55.466666l-42.666667-21.333334 38.4-40.533333 42.666667 27.733333c17.066667-10.666667 38.4-17.066667 59.733333-19.2l-14.933333-44.8h55.466666l10.666667 49.066667c21.333333 6.4 40.533333 17.066667 55.466667 29.866667l21.333333-42.666667 38.4 40.533333-27.733333 42.666667c10.666667 17.066667 17.066667 38.4 19.2 59.733333l44.8-14.933333v55.466667l-49.066667 10.666666z m-140.8-102.4c-32 0-59.733333 27.733333-59.733333 59.733334 0 34.133333 25.6 59.733333 59.733333 59.733333 32 0 59.733333-27.733333 59.733333-59.733333 0-32-27.733333-59.733333-59.733333-59.733334z m4.266667 138.666667c42.666667-2.133333 76.8-36.266667 76.8-78.933333 0-44.8-34.133333-78.933333-78.933334-78.933334-42.666667 0-78.933333 36.266667-78.933333 78.933334s36.266667 78.933333 81.066667 78.933333c-2.133333 0 0 0 0 0z m-490.666667 204.8h21.333333c17.066667 0 29.866667 12.8 29.866667 29.866667 0 17.066667-12.8 29.866667-29.866667 29.866666-6.4 0-14.933333-2.133333-21.333333-2.133333h-14.933333c-108.8 2.133333-196.266667 93.866667-196.266667 204.8 0 113.066667 89.6 204.8 202.666667 204.8 6.4 0 14.933333 0 21.333333-2.133333 17.066667 0 29.866667 12.8 29.866667 29.866666 0 17.066667-12.8 29.866667-29.866667 29.866667h-14.933333C247.466667 872.533333 130.133333 755.2 128 610.133333 128 512 181.333333 428.8 258.133333 384 106.666667 326.4 0 183.466667 0 12.8c0-12.8 0-23.466667 2.133333-36.266667 2.133333-12.8 12.8-23.466667 27.733334-23.466666 14.933333 0 29.866667 12.8 29.866666 29.866666v2.133334c0 6.4-2.133333 14.933333-2.133333 23.466666v6.4c2.133333 183.466667 151.466667 330.666667 332.8 330.666667z m567.466667 281.6C947.2 778.666667 823.466667 896 672 896c-157.866667 0-285.866667-128-285.866667-288 0-106.666667 57.6-198.4 140.8-247.466667C362.666667 300.8 245.333333 142.933333 245.333333-42.666667c0-12.8 0-27.733333 2.133334-40.533333 2.133333-17.066667 12.8-19.2 23.466666-21.333333h12.8c14.933333 2.133333 23.466667 12.8 23.466667 29.866666 0 10.666667-2.133333 19.2-2.133333 29.866667v6.4c0 200.533333 162.133333 362.666667 360.533333 362.666667 157.866667 0 290.133333 125.866667 290.133333 283.733333 2.133333 8.533333 2.133333 14.933333 2.133334 19.2zM657.066667 384c-115.2 8.533333-206.933333 106.666667-206.933334 226.133333 0 123.733333 100.266667 226.133333 221.866667 226.133334 117.333333 0 215.466667-91.733333 221.866667-209.066667v-14.933333c0-125.866667-100.266667-228.266667-224-228.266667-4.266667-2.133333-8.533333 0-12.8 0z"  horiz-adv-x="1066" />

    
    </font>
</defs>
</svg>
